<svg width="50" height="51" viewBox="0 0 50 51" fill="none" xmlns="http://www.w3.org/2000/svg">
<g clip-path="url(#clip0_44_54)">
<path d="M37.4688 10.541L41.6276 6.38219L43.707 8.4616L39.5482 12.6204L37.4688 10.541Z" fill="#B0CB1F"/>
<path d="M44.1172 23.625H49.9995V26.5662H44.1172V23.625Z" fill="#B0CB1F"/>
<path d="M37.4688 39.6543L39.5482 37.5749L43.707 41.7337L41.6276 43.8131L37.4688 39.6543Z" fill="#B0CB1F"/>
<path d="M42.3516 16.9453L47.8516 14.8571L48.8957 17.6071L43.3957 19.6953L42.3516 16.9453Z" fill="#B0CB1F"/>
<path d="M41.8438 34.2871L43.0496 31.6048L48.4143 34.0166L47.2085 36.6989L41.8438 34.2871Z" fill="#B0CB1F"/>
<path d="M30.4141 43.5078L33.1641 42.4637L35.2523 47.9637L32.5023 49.0078L30.4141 43.5078Z" fill="#B0CB1F"/>
<path d="M31.5391 7.07812L33.9626 1.7193L36.6419 2.93103L34.2184 8.28985L31.5391 7.07812Z" fill="#B0CB1F"/>
<path d="M19.5484 2.21394L23.5294 6.19502V10.6631L18.6869 5.82061L16.6072 7.90031L23.5294 14.8225V17.8905C22.592 18.0816 21.719 18.4519 20.9475 18.9634L13.2353 11.2513V1.56629H10.2941V8.31011L7.35294 5.36894V0.0957031H4.41177V4.50747H0V7.44864H5.27324L8.21441 10.3898H1.47059V13.331H11.1556L18.8686 21.044C18.3573 21.8154 17.9876 22.688 17.7966 23.6251H14.7268L7.80451 16.703L5.7248 18.7827L10.5674 23.6251H6.09931L2.11824 19.6441L0.0386275 21.7237L3.41049 25.0957L0.0386275 28.4677L2.11833 30.5474L6.09931 26.5663H10.5673L5.7248 31.4088L7.80451 33.4885L14.7268 26.5663H17.7966C17.9876 27.5034 18.3573 28.3761 18.8687 29.1474L11.1556 36.8604H1.47059V39.8016H8.21441L5.27324 42.7428H0V45.6839H4.41177V50.0957H7.35294V44.8225L10.2941 41.8813V48.6251H13.2353V38.9401L20.9475 31.228C21.719 31.7395 22.592 32.1098 23.5294 32.3009V35.3689L16.6073 42.2911L18.687 44.3708L23.5294 39.5284V43.9964L19.5484 47.9774L21.6281 50.0571L26.4706 45.2146V29.5075H25C22.5674 29.5075 20.5882 27.5284 20.5882 25.0957C20.5882 22.6631 22.5674 20.6839 25 20.6839H26.4706V4.97678L21.628 0.134331L19.5484 2.21394Z" fill="#B0CB1F"/>
<path d="M33.818 25.0956C33.818 22.0866 32.0005 19.4954 29.4062 18.3584V31.8327C32.0005 30.6958 33.818 28.1046 33.818 25.0956Z" fill="#B0CB1F"/>
<path d="M29.4062 9.53223V15.2302C33.6538 16.4988 36.7592 20.441 36.7592 25.0955C36.7592 29.75 33.6538 33.6921 29.4062 34.9608V40.6587C36.1884 38.7336 41.171 32.4861 41.171 25.0955C41.171 17.7048 36.1884 11.4573 29.4062 9.53223Z" fill="#B0CB1F"/>
</g>
<defs>
<clipPath id="clip0_44_54">
<rect width="50" height="50" fill="white" transform="translate(0 0.0957031)"/>
</clipPath>
</defs>
</svg>
