<svg width="40" height="41" viewBox="0 0 40 41" fill="none" xmlns="http://www.w3.org/2000/svg">
<g clip-path="url(#clip0_44_3608)">
<path d="M35 30.0957V33.429" stroke="white" stroke-width="1.5" stroke-linecap="round" stroke-linejoin="round"/>
<path d="M20 21.7637H36.17C37.365 21.7637 38.3333 22.732 38.3333 23.927V28.492C38.3333 29.3787 37.615 30.097 36.7283 30.097H20V21.7637Z" stroke="white" stroke-width="1.5" stroke-linecap="round" stroke-linejoin="round"/>
<path d="M20 11.7611C20 9.9194 21.7717 8.42773 23.9583 8.42773H31.875C34.0617 8.42773 35.8333 9.9194 35.8333 11.7611V17.9944" stroke="white" stroke-width="1.5" stroke-linecap="round" stroke-linejoin="round"/>
<path d="M3.8274 21.7637H19.9974V30.097H2.74573C2.14906 30.097 1.66406 29.612 1.66406 29.0153V23.927C1.66406 22.732 2.6324 21.7637 3.8274 21.7637Z" stroke="white" stroke-width="1.5" stroke-linecap="round" stroke-linejoin="round"/>
<path d="M4.16406 17.9944V11.7611C4.16406 9.9194 5.93573 8.42773 8.1224 8.42773H16.0391C18.2257 8.42773 19.9974 9.9194 19.9974 11.7611" stroke="white" stroke-width="1.5" stroke-linecap="round" stroke-linejoin="round"/>
<path d="M5 30.0957V33.429" stroke="white" stroke-width="1.5" stroke-linecap="round" stroke-linejoin="round"/>
<path d="M3.33594 21.822V20.262C3.33594 18.3287 4.90094 16.7637 6.8326 16.7637H16.5059C18.4376 16.7637 20.0026 18.3287 20.0026 20.2603V21.7637" stroke="white" stroke-width="1.5" stroke-linecap="round" stroke-linejoin="round"/>
<path d="M20 21.7637V20.2603C20 18.3287 21.565 16.7637 23.4967 16.7637H33.17C35.1017 16.7637 36.6667 18.3287 36.6667 20.2603V21.8203" stroke="white" stroke-width="1.5" stroke-linecap="round" stroke-linejoin="round"/>
<path d="M20 11.7637V33.4303" stroke="white" stroke-width="1.5" stroke-linecap="round" stroke-linejoin="round"/>
</g>
<defs>
<clipPath id="clip0_44_3608">
<rect width="40" height="40" fill="white" transform="translate(0 0.0957031)"/>
</clipPath>
</defs>
</svg>
