<svg width="50" height="51" viewBox="0 0 50 51" fill="none" xmlns="http://www.w3.org/2000/svg">
<g clip-path="url(#clip0_44_33)">
<path d="M26.0658 50.0969H24.202C21.6885 50.0969 19.7201 48.5222 19.7201 46.5099V44.6136C19.7201 43.7565 18.948 42.8162 17.8844 42.3782C17.3882 42.1738 16.1251 41.8056 15.1382 42.7998L13.5807 44.3752C12.2391 45.7012 9.87816 45.3304 8.07495 43.5268L6.75583 42.2085C5.98602 41.4391 5.46417 40.4819 5.28755 39.513C5.07431 38.3457 5.37949 37.2486 6.1264 36.5025L7.46536 35.1624C8.07304 34.5551 8.19168 33.345 7.7507 32.2842C7.54433 31.7909 6.91605 30.6427 5.52254 30.6427C5.5191 30.6427 5.51453 30.6427 5.51109 30.6427L3.2917 30.653C1.40839 30.6446 0 28.7151 0 26.1654V24.297C0 21.7838 1.57738 19.8147 3.59077 19.8147H5.48172C6.34155 19.8147 7.28264 19.0422 7.72018 17.9806C7.92389 17.4858 8.29163 16.2266 7.29637 15.2393L5.7209 13.6768C4.39644 12.3386 4.76494 9.9762 6.56929 8.17261L7.88765 6.85425C9.66415 5.07774 12.1716 4.80194 13.5937 6.22444L14.9338 7.56264C15.5411 8.16994 16.7519 8.29048 17.8135 7.84683C18.3083 7.64122 19.4595 7.00951 19.4534 5.60913L19.442 3.3886C19.4515 1.50528 21.3825 0.0976562 23.933 0.0976562H25.7965C28.3108 0.0976562 30.2788 1.67236 30.2788 3.685V5.57938C30.2788 6.43845 31.0513 7.37953 32.1156 7.81708C32.6103 8.02078 33.8722 8.38928 34.8591 7.39517L36.4201 5.82047C37.7609 4.49791 40.1207 4.86641 41.9235 6.66809L43.2434 7.98874C44.2204 8.96378 44.7784 10.2112 44.7784 11.4086C44.7773 12.3005 44.455 13.1134 43.8709 13.6967C43.2453 14.32 42.231 14.3188 41.608 13.694C40.984 13.0684 40.9847 12.0552 41.6107 11.4323C41.6183 11.348 41.5188 10.7883 40.9805 10.2516L39.6614 8.93097C39.1945 8.46481 38.7455 8.28362 38.5269 8.24013L37.1326 9.64851C35.5274 11.2694 33.1406 11.7027 30.8968 10.7777C28.6133 9.83849 27.079 7.74956 27.079 5.58128V3.685C27.0245 3.62244 26.5564 3.29742 25.7965 3.29742H23.933C23.2735 3.29742 22.8283 3.48663 22.6425 3.60947L22.6532 5.59502C22.6635 7.8743 21.2811 9.86938 19.0453 10.8013C16.7656 11.7538 14.2048 11.3602 12.6717 9.82704L11.3316 8.48885C11.2564 8.46214 10.6876 8.57887 10.1498 9.11827L8.83141 10.4362C8.36411 10.9028 8.18329 11.3525 8.14056 11.57L9.54971 12.9681C11.1679 14.5729 11.6013 16.9598 10.6792 19.1982C9.73969 21.4813 7.65114 23.0133 5.48172 23.0133H3.59077C3.52554 23.0682 3.19977 23.5359 3.19977 24.2962V26.1646C3.19977 26.8242 3.38783 27.2678 3.51105 27.4525L5.49545 27.4441H5.52063C7.79037 27.4441 9.7744 28.8254 10.7033 31.0535C11.6524 33.3321 11.2606 35.8921 9.72748 37.4252L8.38852 38.7653C8.37975 38.8512 8.48045 39.4093 9.01756 39.9456L10.3378 41.264C10.8047 41.7309 11.2537 41.9128 11.4719 41.9571L12.8647 40.5479C14.4718 38.9275 16.8621 38.4941 19.1032 39.4188C21.386 40.3591 22.9198 42.4461 22.9198 44.6125V46.5088C22.9748 46.5729 23.4425 46.8979 24.202 46.8979H26.0658C26.7265 46.8979 27.1709 46.7083 27.3556 46.5862L27.3453 44.603C27.335 42.321 28.7189 40.3259 30.9559 39.3944C33.2344 38.4453 35.7952 38.8382 37.3291 40.3728L38.6684 41.711C38.736 41.692 39.3112 41.6149 39.8495 41.0767L41.1678 39.7594C41.634 39.2929 41.8152 38.8439 41.8594 38.6257L40.451 37.2295C38.8313 35.6228 38.3995 33.2333 39.3219 30.9929C40.2611 28.7117 42.35 27.1805 44.5168 27.1805H46.4092C46.4752 27.1259 46.8002 26.6579 46.8002 25.8987V24.0318C46.8002 23.3715 46.6114 22.9267 46.489 22.7421L44.5034 22.7509C44.495 22.7509 44.4855 22.7509 44.4767 22.7509C42.9192 22.7516 41.4825 22.1096 40.4278 20.9412C39.2254 19.6117 38.625 17.7406 38.8184 15.9355C38.9118 15.0558 39.7076 14.4283 40.5785 14.5142C41.4574 14.6076 42.0933 15.3973 41.9998 16.275C41.9052 17.1616 42.2207 18.1515 42.8032 18.7962C43.2549 19.297 43.819 19.5511 44.4775 19.5511H44.4897L46.711 19.5408C48.5943 19.5511 50.0027 21.4813 50.0027 24.0318V25.8987C50.0027 28.4111 48.4261 30.3795 46.4111 30.3795H44.5183C43.6466 30.3795 42.7269 31.1333 42.2821 32.2124C42.0776 32.708 41.7103 33.9691 42.7052 34.9579L44.281 36.5204C45.6043 37.8597 45.2343 40.2203 43.4315 42.0231L42.1131 43.3403C40.3366 45.116 37.8304 45.3953 36.4079 43.9758L35.0674 42.6357C34.4597 42.0273 33.2481 41.9067 32.188 42.3496C31.6925 42.5552 30.5416 43.187 30.5466 44.5885L30.5588 46.8063C30.5477 48.6897 28.6167 50.0969 26.0658 50.0969Z" fill="#B0CB1F"/>
<path d="M35.4683 36.1509H14.5218C13.6379 36.1509 12.9219 35.4349 12.9219 34.5511C12.9219 33.6668 13.6387 32.9512 14.5218 32.9512H35.4675C36.3514 32.9512 37.0681 33.6668 37.0681 34.5511C37.0681 35.4349 36.3514 36.1509 35.4683 36.1509Z" fill="#B0CB1F"/>
<path d="M27.1906 16.9891C25.7807 16.9891 24.5863 16.307 23.7143 15.8084C22.1552 14.9192 21.747 14.7468 20.6846 15.8092C20.0586 16.434 19.0466 16.434 18.4218 15.8092C17.7969 15.1843 17.7969 14.1711 18.4218 13.5463C21.2523 10.715 23.7879 12.1642 25.3023 13.0309C26.837 13.9079 27.4126 14.2371 28.7611 12.8879C29.386 12.263 30.3991 12.263 31.024 12.8879C31.6488 13.5135 31.6488 14.5267 31.0232 15.1508C29.6408 16.534 28.3434 16.9891 27.1906 16.9891Z" fill="#B0CB1F"/>
<path d="M16.0702 36.1505C16.0286 36.1505 15.9863 36.1493 15.9436 36.1459C15.0631 36.0765 14.4043 35.3063 14.4738 34.4255L15.7174 18.5769C15.7826 17.7438 16.4776 17.1025 17.3123 17.1025H21.0335C21.8682 17.1025 22.5632 17.7438 22.6284 18.5769L23.5478 30.2941C23.6172 31.1757 22.9584 31.9451 22.078 32.0146C21.1941 32.0787 20.427 31.4244 20.3576 30.5448L19.5534 20.3023H18.7909L17.6632 34.6768C17.5972 35.5134 16.8969 36.1505 16.0702 36.1505Z" fill="#B0CB1F"/>
<path d="M33.3349 36.1506C32.4507 36.1506 31.7339 35.4346 31.7339 34.5507V26.8111H25.5999C24.7156 26.8111 24 26.0955 24 25.2112C24 24.3273 24.7168 23.6113 25.5999 23.6113H33.3349C34.2188 23.6113 34.9348 24.3273 34.9348 25.2112V34.5496C34.9348 35.4338 34.218 36.1506 33.3349 36.1506Z" fill="#B0CB1F"/>
</g>
<defs>
<clipPath id="clip0_44_33">
<rect width="50.0026" height="50" fill="white" transform="translate(0 0.0957031)"/>
</clipPath>
</defs>
</svg>
