<svg width="50" height="51" viewBox="0 0 50 51" fill="none" xmlns="http://www.w3.org/2000/svg">
<g clip-path="url(#clip0_44_254)">
<mask id="mask0_44_254" style="mask-type:luminance" maskUnits="userSpaceOnUse" x="0" y="0" width="50" height="51">
<path d="M50 0.0957031H0V50.0957H50V0.0957031Z" fill="white"/>
</mask>
<g mask="url(#mask0_44_254)">
<path d="M44.1407 19.627C47.3715 19.627 50 16.9984 50 13.7675C50 10.5367 47.3715 7.9082 44.1407 7.9082H1.95312C0.874414 7.9082 0 8.78261 0 9.86133V17.6739C0 18.7525 0.874414 19.627 1.95312 19.627H3.90625V46.1895H1.95312C0.874414 46.1895 0 47.0639 0 48.1425C0 49.2213 0.874414 50.0957 1.95312 50.0957H17.5782C18.6568 50.0957 19.5312 49.2213 19.5312 48.1425C19.5312 47.0639 18.6568 46.1895 17.5782 46.1895H15.625V19.627H34.375V28.6087C33.5605 28.8959 32.8138 29.3635 32.185 29.9924L23.2283 38.949C22.4656 39.7118 22.4656 40.9484 23.2283 41.7112C23.9911 42.4738 25.2277 42.4739 25.9905 41.7112L26.5625 41.1391V44.2364C26.5625 47.4672 29.191 50.0957 32.4218 50.0957H40.2343C43.4652 50.0957 46.0938 47.4672 46.0938 44.2364V41.1391L46.6658 41.7112C47.4286 42.4739 48.6652 42.4739 49.428 41.7112C50.1907 40.9483 50.1907 39.7117 49.428 38.949L40.4712 29.9924C39.8425 29.3635 39.0958 28.8958 38.2812 28.6087V19.627H44.1407ZM42.1875 37.2329V44.2364C42.1875 45.3133 41.3114 46.1895 40.2343 46.1895H38.2812V44.2364C38.2812 43.1576 37.4068 42.2832 36.3282 42.2832C35.2494 42.2832 34.375 43.1576 34.375 44.2364V46.1895H32.4218C31.3449 46.1895 30.4688 45.3133 30.4688 44.2364V37.2329L34.947 32.7545C35.316 32.3856 35.8065 32.1824 36.3282 32.1824C36.8498 32.1824 37.3402 32.3856 37.7092 32.7545L42.1875 37.2329ZM3.90625 11.8145H44.1407C45.2176 11.8145 46.0938 12.6906 46.0938 13.7675C46.0938 14.8446 45.2176 15.7207 44.1407 15.7207H3.90625V11.8145ZM11.7188 46.1895H7.8125V19.627H11.7188V46.1895Z" fill="#303030"/>
<path d="M15.625 2.04883C15.625 0.970117 14.7506 0.0957031 13.6718 0.0957031H5.85938C4.78066 0.0957031 3.90625 0.970117 3.90625 2.04883C3.90625 3.12754 4.78066 4.00195 5.85938 4.00195H13.6718C14.7506 4.00195 15.625 3.12754 15.625 2.04883Z" fill="#B0CB1F"/>
</g>
</g>
<defs>
<clipPath id="clip0_44_254">
<rect width="50" height="50" fill="white" transform="translate(0 0.0957031)"/>
</clipPath>
</defs>
</svg>
