<svg width="30" height="31" viewBox="0 0 30 31" fill="none" xmlns="http://www.w3.org/2000/svg">
<path d="M1.3857 1.48471C0.0267768 2.84363 0 2.8771 0 3.15156C0 3.37247 0.033471 3.4595 0.174049 3.5666C0.54223 3.85445 0.676114 3.78751 1.62 2.85702L2.47685 2.00686V13.4338C2.47685 21.6409 2.49694 24.9546 2.55049 25.2089C2.79148 26.3336 3.74875 27.2908 4.87337 27.5318C5.12775 27.5854 8.44138 27.6055 16.6485 27.6055H28.0755L27.2253 28.4623C26.5023 29.192 26.3751 29.3526 26.3751 29.5334C26.3751 29.848 26.6228 30.0957 26.9374 30.0957C27.1851 30.0957 27.2588 30.0355 28.5909 28.7033C29.9498 27.3444 29.99 27.2975 29.99 27.0365C29.99 26.7754 29.9498 26.7285 28.5976 25.3763C27.2855 24.0709 27.1918 23.9906 26.9575 23.9906C26.6295 23.9906 26.3751 24.2316 26.3751 24.5328C26.3751 24.7203 26.4889 24.8675 27.2253 25.6106L28.0755 26.4674H16.6619C3.66173 26.4674 4.86668 26.5277 4.21065 25.8717C3.55462 25.2156 3.61487 26.4206 3.61487 13.4205V2.00686L4.47172 2.85702C5.21478 3.59338 5.36205 3.70718 5.54949 3.70718C5.85073 3.70718 6.09172 3.4528 6.09172 3.12479C6.09172 2.89049 6.01139 2.79677 4.70602 1.48471C3.35379 0.132481 3.30693 0.0923157 3.04586 0.0923157C2.78479 0.0923157 2.73793 0.132481 1.3857 1.48471Z" fill="white"/>
<path d="M8.30743 0.264194C8.12669 0.491796 8.12669 0.759565 8.30743 0.980474L8.44132 1.16122L17.8935 1.1746L27.3457 1.19469L27.6871 1.34865C28.1156 1.54279 28.5306 1.96452 28.7314 2.39964L28.8854 2.73435L28.9055 12.1866L28.9256 21.6388L29.0996 21.7726C29.3205 21.9534 29.5883 21.9534 29.8159 21.7726L29.9899 21.6388V12.1129C29.9899 3.59121 29.9765 2.55361 29.8828 2.22559C29.6084 1.28171 28.8385 0.505186 27.9013 0.210642C27.5198 0.0968399 27.0579 0.0901451 17.9739 0.0901451H8.44132L8.30743 0.264194Z" fill="white"/>
<path d="M22.5316 5.78237C21.6413 6.00998 20.992 6.75973 20.8983 7.68353C20.8648 8.02493 20.8715 8.0651 21.0656 8.25253C21.2798 8.47344 21.4673 8.50691 21.7016 8.37972C21.9158 8.27262 22.0095 8.11865 22.0162 7.90443C22.0162 7.6032 22.1835 7.28857 22.4513 7.08774C23.0471 6.62584 23.8973 7.00072 24.0044 7.77055C24.0244 7.93791 24.0044 8.10526 23.9374 8.23245C23.8839 8.33956 23.2881 9.01567 22.6187 9.73195C21.3267 11.111 21.1459 11.3453 21.1459 11.5929C21.1459 11.8674 21.3468 12.1954 21.5878 12.3092C21.7819 12.4029 22.043 12.4163 23.3282 12.3962C24.8277 12.3762 24.8411 12.3762 24.9683 12.2155C25.1424 12.0013 25.1357 11.5996 24.9549 11.4323C24.8344 11.3252 24.6738 11.2984 23.8169 11.2716L22.8128 11.2381L23.7901 10.2005C24.8813 9.03575 25.0888 8.70104 25.1424 8.03832C25.216 7.14799 24.7876 6.37146 24.0111 5.98989C23.5425 5.76229 22.9534 5.68196 22.5316 5.78237Z" fill="white"/>
<path d="M9.40387 8.78314C9.33024 8.79653 9.20305 8.87017 9.12272 8.9505L8.96875 9.08438V14.4933C8.96875 17.4655 8.98883 19.9491 9.00892 20.0093C9.06247 20.1365 9.3771 20.3105 9.57123 20.3105C9.65156 20.3105 9.80552 20.2235 9.91263 20.1164L10.1068 19.9223V15.7786V11.6416L10.2674 11.3069C10.6021 10.5839 11.3787 10.1755 12.115 10.3228C12.3158 10.3697 12.6037 10.4835 12.751 10.5906C13.0656 10.8048 13.4204 11.3604 13.4806 11.7219C13.5007 11.8625 13.5208 13.7703 13.5208 15.966C13.5208 20.431 13.494 20.2034 13.9961 20.2838C14.1902 20.3172 14.2706 20.2905 14.4312 20.1566L14.6253 19.9892L14.6588 15.7451C14.6856 12.6457 14.7124 11.4608 14.7726 11.3269C14.8931 11.0592 15.3215 10.6107 15.596 10.4701C16.4127 10.055 17.4101 10.3897 17.8386 11.2332L18.0394 11.6349L18.0729 15.8321C18.1063 19.7348 18.113 20.0495 18.2268 20.1566C18.4009 20.3306 18.836 20.3105 19.0234 20.1231L19.1774 19.9691L19.1975 16.0731C19.2109 13.623 19.1908 11.983 19.1439 11.6483C19.0569 10.9721 18.836 10.4969 18.4009 10.035C17.3231 8.89694 15.5023 8.85008 14.3844 9.93454L14.0563 10.2425L13.7819 9.96132C12.9585 9.12455 11.5862 8.90364 10.5486 9.45256C10.3611 9.55297 10.1871 9.64 10.1603 9.65339C10.1268 9.66678 10.1068 9.55967 10.1068 9.4124C10.1068 8.97727 9.80552 8.70951 9.40387 8.78314Z" fill="white"/>
</svg>
