<svg width="50" height="51" viewBox="0 0 50 51" fill="none" xmlns="http://www.w3.org/2000/svg">
<g clip-path="url(#clip0_44_99)">
<path d="M44.6312 7.44511H39.7943V11.9894H18.3505L7.72813 1.41952C5.96299 -0.34552 3.09102 -0.345618 1.32598 1.41952C0.470898 2.2745 0 3.41141 0 4.62059C0 5.82977 0.470898 6.96659 1.32598 7.82167L5.546 11.9893H5.36885C2.4085 11.9894 0 14.3978 0 17.3583V45.4393C0 48.0069 2.08887 50.0957 4.65635 50.0957H10.8951V43.7113H45.3118C47.8969 43.7113 50 41.6082 50 39.0231V12.814C50 9.8535 47.5915 7.44511 44.6312 7.44511ZM19.0601 19.1014L16.3257 18.6276L7.86094 10.163L10.1217 7.90223L18.5863 16.367L19.0601 19.1014ZM3.39668 3.49022C4.01992 2.86698 5.03398 2.86688 5.65742 3.49022L8.05107 5.83153L5.79033 8.09227L3.39502 5.7493C2.7748 5.12909 2.76953 4.12186 3.3875 3.4994C3.39062 3.49637 3.39365 3.49325 3.39668 3.49022ZM7.9667 47.1672H4.65635C3.70361 47.1672 2.92842 46.392 2.92842 45.4391C2.92842 44.4863 3.70361 43.7112 4.65635 43.7112H7.9666L7.9667 47.1672ZM45.3118 40.7828H4.65635C4.0459 40.7828 3.46309 40.902 2.92842 41.1166V17.3583C2.92842 16.0126 4.02314 14.9179 5.36885 14.9179H8.47441L14.9113 21.3548L22.6118 22.6885L10.5452 32.3207V22.3498H7.6167V36.8273H35.4891V33.8988H13.2622L26.2845 23.5037L30.4292 27.6086H27.8393V30.5371H35.4532V22.923H32.5248V25.5625L26.4939 19.5895L22.6484 22.6593L21.3136 14.9524L21.279 14.9179H39.7943V37.2633H45.3118C46.2821 37.2633 47.0716 38.0526 47.0716 39.023C47.0716 39.9934 46.2821 40.7828 45.3118 40.7828ZM47.0716 34.6776C46.5279 34.4567 45.9338 34.3349 45.3118 34.3349H42.7229V10.3735H44.6312C45.9769 10.3735 47.0717 11.4683 47.0717 12.814V34.6776H47.0716Z" fill="#B0CB1F"/>
</g>
<defs>
<clipPath id="clip0_44_99">
<rect width="50" height="50" fill="white" transform="translate(0 0.0957031)"/>
</clipPath>
</defs>
</svg>
