<?xml version="1.0" encoding="UTF-8" standalone="no"?>
<svg
   width="34"
   height="34"
   viewBox="0 0 34 34"
   fill="none"
   version="1.1"
   id="svg2"
   sodipodi:docname="close.svg"
   inkscape:version="1.3.2 (091e20e, 2023-11-25, custom)"
   xmlns:inkscape="http://www.inkscape.org/namespaces/inkscape"
   xmlns:sodipodi="http://sodipodi.sourceforge.net/DTD/sodipodi-0.dtd"
   xmlns="http://www.w3.org/2000/svg"
   xmlns:svg="http://www.w3.org/2000/svg">
  <defs
     id="defs2" />
  <sodipodi:namedview
     id="namedview2"
     pagecolor="#ffffff"
     bordercolor="#cccccc"
     borderopacity="1"
     inkscape:showpageshadow="0"
     inkscape:pageopacity="1"
     inkscape:pagecheckerboard="0"
     inkscape:deskcolor="#d1d1d1"
     inkscape:zoom="34.735294"
     inkscape:cx="16.985605"
     inkscape:cy="17"
     inkscape:window-width="3440"
     inkscape:window-height="1377"
     inkscape:window-x="-8"
     inkscape:window-y="-8"
     inkscape:window-maximized="1"
     inkscape:current-layer="svg2" />
  <path
     style="color:#000000;fill:#ea6f6f;stroke-linecap:round;stroke-linejoin:round;-inkscape-stroke:none"
     d="M 32,0.59570312 A 1.5,1.5 0 0 0 30.939453,1.0351562 L 0.93945313,31.035156 a 1.5,1.5 0 0 0 0,2.121094 1.5,1.5 0 0 0 2.12109377,0 l 30.0000001,-30 a 1.5,1.5 0 0 0 0,-2.1210938 A 1.5,1.5 0 0 0 32,0.59570312 Z"
     id="path1" />
  <path
     style="color:#000000;fill:#ea6f6f;stroke-linecap:round;stroke-linejoin:round;-inkscape-stroke:none"
     d="m 2,0.59570312 a 1.5,1.5 0 0 0 -1.06054687,0.43945308 1.5,1.5 0 0 0 0,2.1210938 l 29.99999987,30 a 1.5,1.5 0 0 0 2.121094,0 1.5,1.5 0 0 0 0,-2.121094 L 3.0605469,1.0351562 A 1.5,1.5 0 0 0 2,0.59570312 Z"
     id="path2" />
</svg>
