<svg width="30" height="26" viewBox="0 0 30 26" fill="none" xmlns="http://www.w3.org/2000/svg">
<path d="M17.1797 0.494141C17.0742 0.558594 16.9395 0.693359 16.875 0.798828C16.7578 0.992188 16.7578 1.11523 16.7578 11.2871V21.5879H21.6211H26.4844V11.2871C26.4844 1.11523 26.4844 0.992188 26.3672 0.798828C26.3027 0.693359 26.168 0.558594 26.0625 0.494141C25.875 0.382812 25.7578 0.376953 21.6211 0.376953C17.4844 0.376953 17.3672 0.382812 17.1797 0.494141Z" fill="#B0CB1F"/>
<path d="M3.98516 7.53711C3.4754 7.80078 3.51641 7.19141 3.51641 14.832V21.5879H8.37969H13.243V14.8027C13.243 8.10547 13.243 8.02344 13.1258 7.83008C13.0555 7.71875 12.9031 7.58984 12.7566 7.52539C12.5223 7.41406 12.3289 7.4082 8.37969 7.4082H4.24298L3.98516 7.53711Z" fill="#B0CB1F"/>
<path d="M0.486328 23.4038C0.146484 23.5561 0 23.8081 0 24.2358C0 24.5053 0.0292969 24.5991 0.152344 24.7514C0.474609 25.1323 -0.779297 25.103 15 25.103C30.7793 25.103 29.5254 25.1323 29.8477 24.7514C29.9707 24.5991 30 24.5053 30 24.2358C30 23.8081 29.8535 23.5561 29.5137 23.4038C29.2734 23.2924 28.9453 23.2866 15 23.2866C1.05469 23.2866 0.726562 23.2924 0.486328 23.4038Z" fill="#B0CB1F"/>
</svg>
