<svg width="40" height="41" viewBox="0 0 40 41" fill="none" xmlns="http://www.w3.org/2000/svg">
<g clip-path="url(#clip0_44_1484)">
<path d="M18.3372 23.4329C20.1053 23.4329 21.801 22.7306 23.0513 21.4803C24.3015 20.2301 25.0039 18.5344 25.0039 16.7663C25.0039 14.9982 24.3015 13.3025 23.0513 12.0522C21.801 10.802 20.1053 10.0996 18.3372 10.0996H11.6706C9.90246 10.0996 8.20677 10.802 6.95653 12.0522C5.70628 13.3025 5.00391 14.9982 5.00391 16.7663C5.00391 18.5344 5.70628 20.2301 6.95653 21.4803C8.20677 22.7306 9.90246 23.4329 11.6706 23.4329" stroke="white" stroke-width="2" stroke-linecap="round" stroke-linejoin="round"/>
<path d="M21.6706 16.7676C19.9025 16.7676 18.2068 17.47 16.9565 18.7202C15.7063 19.9704 15.0039 21.6661 15.0039 23.4342C15.0039 25.2024 15.7063 26.898 16.9565 28.1483C18.2068 29.3985 19.9025 30.1009 21.6706 30.1009H28.3372C30.1053 30.1009 31.801 29.3985 33.0513 28.1483C34.3015 26.898 35.0039 25.2024 35.0039 23.4342C35.0039 21.6661 34.3015 19.9704 33.0513 18.7202C31.801 17.47 30.1053 16.7676 28.3372 16.7676" stroke="white" stroke-width="2" stroke-linecap="round" stroke-linejoin="round"/>
</g>
<defs>
<clipPath id="clip0_44_1484">
<rect width="40" height="40" fill="white" transform="translate(0.00390625 0.0996094)"/>
</clipPath>
</defs>
</svg>
