<?xml version="1.0" encoding="UTF-8" standalone="no"?>
<svg
   width="40"
   height="41"
   viewBox="0 0 40 41"
   fill="none"
   version="1.1"
   id="svg2"
   sodipodi:docname="copy.svg"
   inkscape:version="1.3.2 (091e20e, 2023-11-25, custom)"
   xmlns:inkscape="http://www.inkscape.org/namespaces/inkscape"
   xmlns:sodipodi="http://sodipodi.sourceforge.net/DTD/sodipodi-0.dtd"
   xmlns="http://www.w3.org/2000/svg"
   xmlns:svg="http://www.w3.org/2000/svg">
  <sodipodi:namedview
     id="namedview2"
     pagecolor="#ffffff"
     bordercolor="#cccccc"
     borderopacity="1"
     inkscape:showpageshadow="0"
     inkscape:pageopacity="1"
     inkscape:pagecheckerboard="0"
     inkscape:deskcolor="#d1d1d1"
     inkscape:zoom="28.804878"
     inkscape:cx="19.996613"
     inkscape:cy="20.5"
     inkscape:window-width="3440"
     inkscape:window-height="1377"
     inkscape:window-x="-8"
     inkscape:window-y="-8"
     inkscape:window-maximized="1"
     inkscape:current-layer="svg2" />
  <path
     style="color:#000000;fill:#ffffff;stroke-linecap:round;stroke-linejoin:round;-inkscape-stroke:none"
     d="m 11.669922,9.0996094 c -2.0329738,0 -3.9824241,0.8086418 -5.419922,2.2460936 -1.4374987,1.437556 -2.2460937,3.386994 -2.2460938,5.419922 0,2.032928 0.8085621,3.984401 2.2460938,5.421875 1.4375199,1.437589 3.3869859,2.246094 5.419922,2.246094 a 1,1 0 0 0 1,-1 1,1 0 0 0 -1,-1 c -1.503341,0 -2.9429019,-0.597148 -4.0058595,-1.660157 -1.0629658,-1.062923 -1.6601562,-2.504544 -1.6601563,-4.007812 0,-1.503268 0.5971575,-2.942818 1.6601563,-4.005859 1.0629796,-1.062946 2.5025565,-1.660157 4.0058595,-1.660157 h 6.667969 c 1.503256,0 2.94281,0.597193 4.005859,1.660157 1.062964,1.063048 1.660156,2.502602 1.660156,4.005859 0,1.503257 -0.597226,2.944882 -1.660156,4.007812 -1.063027,1.063027 -2.502565,1.660157 -4.005859,1.660157 a 1,1 0 0 0 -1,1 1,1 0 0 0 1,1 c 2.032902,0 3.982351,-0.808523 5.419921,-2.246094 1.437468,-1.437467 2.246094,-3.388935 2.246094,-5.421875 0,-2.03294 -0.80866,-3.982373 -2.246094,-5.419922 C 22.320264,9.9082691 20.37083,9.0996094 18.337891,9.0996094 Z"
     id="path1" />
  <path
     style="color:#000000;fill:#ffffff;stroke-linecap:round;stroke-linejoin:round;-inkscape-stroke:none"
     d="m 21.669922,15.767578 c -2.03294,0 -3.982373,0.80866 -5.419922,2.246094 -1.437467,1.437467 -2.246094,3.386982 -2.246094,5.419922 0,2.033024 0.808679,3.984345 2.246094,5.421875 1.437549,1.437434 3.386982,2.246094 5.419922,2.246093 h 6.667969 c 2.032939,0 3.982373,-0.808659 5.419921,-2.246093 1.437416,-1.43753 2.246094,-3.388851 2.246094,-5.421875 0,-2.03294 -0.808626,-3.982455 -2.246094,-5.419922 -1.437548,-1.437434 -3.386982,-2.246094 -5.419921,-2.246094 a 1,1 0 0 0 -1,1 1,1 0 0 0 1,1 c 1.503256,0 2.94281,0.597193 4.005859,1.660156 1.06293,1.062931 1.660156,2.502603 1.660156,4.00586 0,1.503371 -0.597174,2.944745 -1.660156,4.007812 -1.063049,1.062964 -2.502603,1.660157 -4.005859,1.660156 h -6.667969 c -1.503257,0 -2.942811,-0.597192 -4.00586,-1.660156 -1.062982,-1.063067 -1.660156,-2.504441 -1.660156,-4.007812 0,-1.503257 0.597226,-2.942929 1.660156,-4.00586 1.063049,-1.062963 2.502603,-1.660156 4.00586,-1.660156 a 1,1 0 0 0 1,-1 1,1 0 0 0 -1,-1 z"
     id="path2" />
  <defs
     id="defs2">
    <clipPath
       clipPathUnits="userSpaceOnUse"
       id="clipPath3">
      <g
         id="g4">
        <rect
           width="40"
           height="40"
           fill="#ffffff"
           id="rect3"
           x="0.00390625"
           y="0.099609397" />
      </g>
    </clipPath>
    <clipPath
       clipPathUnits="userSpaceOnUse"
       id="clipPath4">
      <g
         id="g5">
        <rect
           width="40"
           height="40"
           fill="#ffffff"
           id="rect4"
           x="0.00390625"
           y="0.099609397" />
      </g>
    </clipPath>
  </defs>
</svg>
