<svg width="26" height="26" viewBox="0 0 26 26" fill="none" xmlns="http://www.w3.org/2000/svg">
<path d="M6.03014 0.964252C5.46266 1.11558 4.94923 1.41283 4.51146 1.8506C4.06828 2.28837 3.86291 2.60184 3.67375 3.11527L3.55485 3.44495L2.04157 3.47197C0.371564 3.5044 0.393182 3.49899 0.117549 3.87191C-0.0391831 4.07728 -0.0391831 4.59612 0.117549 4.80149C0.393182 5.17441 0.371564 5.169 2.04157 5.20143L3.55485 5.22845L3.67375 5.55813C3.86291 6.07156 4.06828 6.38503 4.51146 6.8228C4.96004 7.26597 5.46807 7.55782 6.05716 7.71455C6.44629 7.81724 7.35426 7.82805 7.73258 7.73617C8.14332 7.63889 8.74864 7.34164 9.10534 7.07141C9.60796 6.68768 10.1322 5.90402 10.2781 5.34195L10.3106 5.20143H17.8607H25.4055L25.6001 5.07172C26.1027 4.73123 26.0865 3.90433 25.5784 3.58547L25.3947 3.47197H17.8499H10.3106L10.2781 3.33145C10.2025 3.04501 9.93223 2.52077 9.68903 2.19649C9.24045 1.6074 8.42436 1.08856 7.71636 0.93723C7.31643 0.856161 6.38684 0.866971 6.03014 0.964252ZM7.66232 2.81261C8.61352 3.28281 8.91618 4.50965 8.28384 5.34195C7.66232 6.15804 6.54357 6.24992 5.77072 5.55273C5.25188 5.08793 5.09515 4.26104 5.39781 3.6233C5.57075 3.2666 5.87341 2.97475 6.26794 2.79099C6.63545 2.61264 7.27319 2.62345 7.66232 2.81261Z" fill="#84A12F"/>
<path d="M16.3296 9.62695C15.2379 9.94042 14.2813 10.8592 13.9732 11.8861L13.9083 12.1185H7.24993H0.591505L0.413155 12.2374C0.105095 12.4481 0.0078125 12.6265 0.0078125 12.9832C0.0078125 13.3399 0.105095 13.5182 0.413155 13.7236L0.591505 13.8479H7.24993H13.9083L13.9732 14.0749C14.2867 15.1234 15.2919 16.0746 16.389 16.3556C16.816 16.4637 17.7456 16.4691 18.1563 16.361C19.194 16.0908 20.1344 15.2639 20.5127 14.2803L20.6695 13.8749L23.0691 13.8479C25.4363 13.8209 25.4633 13.8209 25.6308 13.702C26.0902 13.3723 26.0902 12.5941 25.6308 12.2644C25.4633 12.1455 25.4363 12.1455 23.0691 12.1185L20.6695 12.0914L20.5127 11.6861C20.1344 10.7025 19.1994 9.87556 18.1671 9.60533C17.7294 9.49184 16.7566 9.50265 16.3296 9.62695ZM18.0861 11.5023C18.8805 11.9347 19.1886 12.9021 18.7941 13.7128C18.5995 14.1073 18.3455 14.3505 17.9347 14.5397C17.6807 14.6532 17.5889 14.6694 17.1997 14.6478C16.6809 14.6208 16.4053 14.4965 16.054 14.1398C15.7243 13.7939 15.5838 13.3939 15.6108 12.8751C15.6378 12.4049 15.7675 12.113 16.0864 11.7942C16.6214 11.2591 17.4213 11.1402 18.0861 11.5023Z" fill="#84A12F"/>
<path d="M6.57077 18.1779C5.26287 18.2914 4.01982 19.302 3.65231 20.5343L3.58205 20.7666H2.09039H0.598729L0.404165 20.8964C-0.0930549 21.2368 -0.0930549 22.0259 0.404165 22.3664L0.598729 22.4961H2.09039H3.58205L3.65231 22.7231C3.89011 23.5284 4.57649 24.3337 5.35474 24.7228C5.87899 24.9876 6.33297 25.0957 6.94909 25.0957C7.96515 25.0957 8.69476 24.7985 9.38655 24.1175C9.82972 23.6797 10.0351 23.3662 10.2243 22.8528L10.3432 22.5231L17.9095 22.4961C25.4489 22.4691 25.4813 22.4691 25.6273 22.3556C25.9137 22.1448 26.0002 21.9773 26.0002 21.6314C26.0002 21.2855 25.9137 21.1179 25.6273 20.9072C25.4813 20.7937 25.4489 20.7937 17.9095 20.7666L10.3432 20.7396L10.2243 20.4099C10.0351 19.8965 9.82972 19.583 9.38655 19.1453C8.62451 18.394 7.70032 18.0752 6.57077 18.1779ZM7.76518 20.1559C8.15971 20.3667 8.44075 20.7126 8.57046 21.1342C8.70017 21.5557 8.70557 21.6854 8.59208 22.0637C8.36509 22.8204 7.73816 23.3122 6.99233 23.3122C5.47364 23.3122 4.7062 21.5233 5.7709 20.4532C6.30595 19.9073 7.10042 19.7884 7.76518 20.1559Z" fill="#84A12F"/>
</svg>
