<svg width="30" height="27" viewBox="0 0 30 27" fill="none" xmlns="http://www.w3.org/2000/svg">
<path d="M7.10773 0.349157C5.93458 0.48263 4.642 0.96032 3.61637 1.62768C0.230389 3.85456 -0.970863 8.33642 0.841552 11.9753C1.44569 13.1976 1.55106 13.31 7.87344 19.6535C11.3226 23.1097 14.0553 25.8002 14.2309 25.9056C14.6243 26.1374 15.3198 26.1585 15.7132 25.9618C15.9731 25.8283 27.0092 14.8625 27.9013 13.8509C28.9832 12.6286 29.6084 11.3782 29.9104 9.83272C30.0299 9.22156 30.0299 7.60584 29.9104 6.95253C29.6154 5.30169 28.8567 3.85456 27.6625 2.66034C25.2529 0.257833 21.5579 -0.374403 18.481 1.07974C17.5256 1.53636 17.0409 1.8876 15.9731 2.94133L15.0107 3.88969L14.0413 2.93431C13.0367 1.9438 12.5801 1.59256 11.7301 1.16404C10.3673 0.48263 8.64617 0.180561 7.10773 0.349157Z" fill="#B0CB1F"/>
</svg>
