<svg width="24" height="23" viewBox="0 0 24 23" fill="none" xmlns="http://www.w3.org/2000/svg">
<path d="M11.9967 7.4116C9.9683 7.4116 8.313 9.06693 8.313 11.0953C8.313 13.1237 9.9683 14.7791 11.9967 14.7791C14.025 14.7791 15.6803 13.1237 15.6803 11.0953C15.6803 9.06693 14.025 7.4116 11.9967 7.4116ZM23.0449 11.0953C23.0449 9.56989 23.0587 8.05826 22.9731 6.53557C22.8874 4.76694 22.4839 3.19727 21.1906 1.90396C19.8946 0.607876 18.3277 0.207169 16.5591 0.121501C15.0337 0.0358326 13.5221 0.0496501 11.9994 0.0496501C10.474 0.0496501 8.96241 0.0358326 7.43975 0.121501C5.67115 0.207169 4.10151 0.610639 2.80822 1.90396C1.51216 3.20003 1.11146 4.76694 1.0258 6.53557C0.94013 8.06102 0.953947 9.57265 0.953947 11.0953C0.953947 12.618 0.94013 14.1324 1.0258 15.6551C1.11146 17.4237 1.51493 18.9934 2.80822 20.2867C4.10427 21.5828 5.67115 21.9835 7.43975 22.0692C8.96517 22.1548 10.4768 22.141 11.9994 22.141C13.5249 22.141 15.0365 22.1548 16.5591 22.0692C18.3277 21.9835 19.8974 21.58 21.1906 20.2867C22.4867 18.9906 22.8874 17.4237 22.9731 15.6551C23.0615 14.1324 23.0449 12.6208 23.0449 11.0953ZM11.9967 16.7633C8.86016 16.7633 6.32884 14.2319 6.32884 11.0953C6.32884 7.95877 8.86016 5.42741 11.9967 5.42741C15.1332 5.42741 17.6645 7.95877 17.6645 11.0953C17.6645 14.2319 15.1332 16.7633 11.9967 16.7633ZM17.8966 6.51899C17.1643 6.51899 16.5729 5.9276 16.5729 5.19528C16.5729 4.46295 17.1643 3.87156 17.8966 3.87156C18.6289 3.87156 19.2203 4.46295 19.2203 5.19528C19.2205 5.36917 19.1864 5.5414 19.12 5.7021C19.0535 5.8628 18.9561 6.00881 18.8331 6.13177C18.7101 6.25473 18.5641 6.35223 18.4034 6.41867C18.2427 6.48512 18.0705 6.51921 17.8966 6.51899Z" fill="#B0CB1F"/>
</svg>
