<svg width="30" height="31" viewBox="0 0 30 31" fill="none" xmlns="http://www.w3.org/2000/svg">
<g clip-path="url(#clip0_44_417)">
<path d="M20 26.3457H10C8.61875 26.3457 7.5 25.227 7.5 23.8457V6.3457C7.5 4.96445 8.61875 3.8457 10 3.8457H20C21.3813 3.8457 22.5 4.96445 22.5 6.3457V23.8457C22.5 25.227 21.3813 26.3457 20 26.3457Z" stroke="#B0CB1F" stroke-width="1.5" stroke-linecap="round" stroke-linejoin="round"/>
<path d="M14.9988 21.6582C14.8263 21.6582 14.6863 21.7982 14.6875 21.9707C14.6875 22.1432 14.8275 22.2832 15 22.2832C15.1725 22.2832 15.3125 22.1432 15.3125 21.9707C15.3125 21.7982 15.1725 21.6582 14.9988 21.6582Z" stroke="#B0CB1F" stroke-width="1.5" stroke-linecap="round" stroke-linejoin="round"/>
<path d="M13.4375 7.5957H16.5625" stroke="#B0CB1F" stroke-width="1.5" stroke-linecap="round" stroke-linejoin="round"/>
</g>
<defs>
<clipPath id="clip0_44_417">
<rect width="30" height="30" fill="white" transform="translate(0 0.0957031)"/>
</clipPath>
</defs>
</svg>
