<?xml version="1.0" encoding="UTF-8" standalone="no"?>
<svg
   width="30"
   height="31"
   viewBox="0 0 30 31"
   fill="none"
   version="1.1"
   id="svg3"
   sodipodi:docname="mobile.svg"
   inkscape:version="1.3.2 (091e20e, 2023-11-25, custom)"
   xmlns:inkscape="http://www.inkscape.org/namespaces/inkscape"
   xmlns:sodipodi="http://sodipodi.sourceforge.net/DTD/sodipodi-0.dtd"
   xmlns="http://www.w3.org/2000/svg"
   xmlns:svg="http://www.w3.org/2000/svg">
  <sodipodi:namedview
     id="namedview3"
     pagecolor="#ffffff"
     bordercolor="#cccccc"
     borderopacity="1"
     inkscape:showpageshadow="0"
     inkscape:pageopacity="1"
     inkscape:pagecheckerboard="0"
     inkscape:deskcolor="#d1d1d1"
     inkscape:zoom="38.096774"
     inkscape:cx="14.988146"
     inkscape:cy="15.5"
     inkscape:window-width="3440"
     inkscape:window-height="1377"
     inkscape:window-x="-8"
     inkscape:window-y="-8"
     inkscape:window-maximized="1"
     inkscape:current-layer="svg3" />
  <path
     style="color:#000000;fill:#b0cb1f;stroke-linecap:round;stroke-linejoin:round;-inkscape-stroke:none"
     d="m 10,3.0957031 c -1.7862256,0 -3.25,1.4637744 -3.25,3.25 V 23.845703 c 0,1.786261 1.4637925,3.25 3.25,3.25 h 10 c 1.786243,0 3.25,-1.463757 3.25,-3.25 V 6.3457031 c 0,-1.7862075 -1.463739,-3.25 -3.25,-3.25 z m 0,1.5 h 10 c 0.976336,0 1.75,0.7737103 1.75,1.75 V 23.845703 c 0,0.976355 -0.773646,1.75 -1.75,1.75 H 10 c -0.9762897,0 -1.75,-0.773664 -1.75,-1.75 V 6.3457031 c 0,-0.9762716 0.7737284,-1.75 1.75,-1.75 z"
     id="path1" />
  <path
     style="color:#000000;fill:#b0cb1f;stroke-linecap:round;stroke-linejoin:round;-inkscape-stroke:none"
     d="m 14.998047,20.908203 c -0.57675,0 -1.060008,0.485425 -1.058594,1.064453 0.0015,0.577088 0.483162,1.060547 1.060547,1.060547 0.578297,0 1.0625,-0.484203 1.0625,-1.0625 0,-0.578296 -0.48776,-1.0625 -1.064453,-1.0625 z m 0.002,0.625 c 0.232255,0 0.433735,0.203554 0.435547,0.435547 -0.0011,0.234124 -0.205754,0.439453 -0.4375,0.439453 -0.229294,0 -0.435547,-0.204203 -0.435547,-0.4375 0,-0.233297 0.204203,-0.4375 0.4375,-0.4375 z"
     id="path2" />
  <path
     style="color:#000000;fill:#b0cb1f;stroke-linecap:round;stroke-linejoin:round;-inkscape-stroke:none"
     d="m 13.4375,6.8457031 a 0.75,0.75 0 0 0 -0.75,0.75 0.75,0.75 0 0 0 0.75,0.75 h 3.125 a 0.75,0.75 0 0 0 0.75,-0.75 0.75,0.75 0 0 0 -0.75,-0.75 z"
     id="path3" />
  <defs
     id="defs3">
    <clipPath
       clipPathUnits="userSpaceOnUse"
       id="clipPath4">
      <g
         id="g5">
        <rect
           width="30"
           height="30"
           fill="#ffffff"
           id="rect4"
           x="0"
           y="0.095703103" />
      </g>
    </clipPath>
    <clipPath
       clipPathUnits="userSpaceOnUse"
       id="clipPath5">
      <g
         id="g6">
        <rect
           width="30"
           height="30"
           fill="#ffffff"
           id="rect5"
           x="0"
           y="0.095703103" />
      </g>
    </clipPath>
    <clipPath
       clipPathUnits="userSpaceOnUse"
       id="clipPath6">
      <g
         id="g7">
        <rect
           width="30"
           height="30"
           fill="#ffffff"
           id="rect6"
           x="0"
           y="0.095703103" />
      </g>
    </clipPath>
  </defs>
</svg>
