<?xml version="1.0" encoding="UTF-8" standalone="no"?>
<svg
   width="46"
   height="47"
   viewBox="0 0 46 47"
   fill="none"
   version="1.1"
   id="svg2"
   sodipodi:docname="plus.svg"
   inkscape:version="1.3.2 (091e20e, 2023-11-25, custom)"
   xmlns:inkscape="http://www.inkscape.org/namespaces/inkscape"
   xmlns:sodipodi="http://sodipodi.sourceforge.net/DTD/sodipodi-0.dtd"
   xmlns="http://www.w3.org/2000/svg"
   xmlns:svg="http://www.w3.org/2000/svg">
  <defs
     id="defs2" />
  <sodipodi:namedview
     id="namedview2"
     pagecolor="#ffffff"
     bordercolor="#cccccc"
     borderopacity="1"
     inkscape:showpageshadow="0"
     inkscape:pageopacity="1"
     inkscape:pagecheckerboard="0"
     inkscape:deskcolor="#d1d1d1"
     inkscape:zoom="25.12766"
     inkscape:cx="23.00254"
     inkscape:cy="23.5"
     inkscape:window-width="3440"
     inkscape:window-height="1377"
     inkscape:window-x="-8"
     inkscape:window-y="-8"
     inkscape:window-maximized="1"
     inkscape:current-layer="svg2" />
  <path
     style="color:#000000;fill:#303030;stroke-linecap:round;stroke-linejoin:round;-inkscape-stroke:none"
     d="m 23.212891,0.59765625 a 1.5,1.5 0 0 0 -1.5,1.50000005 V 44.523437 a 1.5,1.5 0 0 0 1.5,1.5 1.5,1.5 0 0 0 1.5,-1.5 V 2.0976563 a 1.5,1.5 0 0 0 -1.5,-1.50000005 z"
     id="path1" />
  <path
     style="color:#000000;fill:#303030;stroke-linecap:round;stroke-linejoin:round;-inkscape-stroke:none"
     d="m 2,21.810547 a 1.5,1.5 0 0 0 -1.5,1.5 1.5,1.5 0 0 0 1.5,1.5 h 42.425781 a 1.5,1.5 0 0 0 1.5,-1.5 1.5,1.5 0 0 0 -1.5,-1.5 z"
     id="path2" />
</svg>
