<svg width="34" height="32" viewBox="0 0 34 32" fill="none" xmlns="http://www.w3.org/2000/svg">
<path d="M6.77734 3.84704V7.26562H16.9999H27.2225V3.84704V0.428452H16.9999H6.77734V3.84704Z" fill="#84A12F"/>
<path d="M4.14877 9.02425C3.53807 9.13046 3.25927 9.22339 2.72159 9.49555C1.5533 10.0731 0.657165 11.1285 0.212417 12.4296L0.0398282 12.9407L0.0199141 18.5963L0 24.2585H3.39203H6.77743V27.6771V31.0957H17H27.2226V27.6771V24.2585H30.608H34L33.9801 18.5963L33.9602 12.9407L33.7876 12.4296C33.2234 10.7767 31.9688 9.58184 30.2827 9.1039L29.7782 8.95787L17.1991 8.94459C7.10269 8.93795 4.52714 8.95123 4.14877 9.02425ZM29.6455 12.5756C29.984 12.7216 30.3823 13.1531 30.4686 13.485C30.7274 14.4011 30.2694 15.41 29.4994 15.6225C28.1453 16.0008 27.0035 15.025 27.2757 13.7173C27.5014 12.6353 28.5834 12.1109 29.6455 12.5756ZM23.7708 23.4288V27.6439H17H10.2292V23.4288V19.2136H17H23.7708V23.4288Z" fill="#84A12F"/>
</svg>
