<?xml version="1.0" encoding="UTF-8" standalone="no"?>
<svg
   width="20"
   height="21"
   viewBox="0 0 20 21"
   fill="none"
   version="1.1"
   id="svg2"
   sodipodi:docname="search.svg"
   inkscape:version="1.3.2 (091e20e, 2023-11-25, custom)"
   xmlns:inkscape="http://www.inkscape.org/namespaces/inkscape"
   xmlns:sodipodi="http://sodipodi.sourceforge.net/DTD/sodipodi-0.dtd"
   xmlns="http://www.w3.org/2000/svg"
   xmlns:svg="http://www.w3.org/2000/svg">
  <defs
     id="defs2" />
  <sodipodi:namedview
     id="namedview2"
     pagecolor="#ffffff"
     bordercolor="#cccccc"
     borderopacity="1"
     inkscape:showpageshadow="0"
     inkscape:pageopacity="1"
     inkscape:pagecheckerboard="0"
     inkscape:deskcolor="#d1d1d1"
     inkscape:zoom="56.238095"
     inkscape:cx="9.9932261"
     inkscape:cy="10.5"
     inkscape:window-width="3440"
     inkscape:window-height="1377"
     inkscape:window-x="-8"
     inkscape:window-y="-8"
     inkscape:window-maximized="1"
     inkscape:current-layer="svg2" />
  <path
     style="color:#000000;fill:#b0cb1f;stroke-linecap:round;stroke-linejoin:round;-inkscape-stroke:none"
     d="m 8.3085938,2.5449219 c -1.4669358,-2e-7 -2.9339333,0.5569743 -4.0488282,1.671875 -2.2297896,2.2297896 -2.2297919,5.8678761 0,8.0976561 2.2297891,2.229812 5.8678954,2.229819 8.0976564,0 2.229813,-2.229779 2.229811,-5.8678679 0,-8.0976561 C 11.242541,3.1018929 9.7755295,2.5449221 8.3085938,2.5449219 Z m 0,1.4902343 c 1.0799092,-1e-7 2.1600142,0.4139035 2.9882812,1.2421875 1.656585,1.656568 1.656583,4.3200054 0,5.9765623 -1.6565348,1.656578 -4.3199955,1.656584 -5.9765625,0 -1.6565642,-1.6565555 -1.6565664,-4.3199958 0,-5.9765623 0.8282831,-0.8282873 1.908372,-1.2421873 2.9882813,-1.2421875 z"
     id="path1" />
  <path
     style="color:#000000;fill:#b0cb1f;stroke-linecap:round;stroke-linejoin:round;-inkscape-stroke:none"
     d="m 11.796875,11.0625 a 0.75,0.75 0 0 0 -0.53125,0.216797 0.75,0.75 0 0 0 -0.0078,1.060547 l 4.874999,4.941406 a 0.75,0.75 0 0 0 1.060547,0.0078 0.75,0.75 0 0 0 0.0078,-1.0625 l -4.875,-4.941406 A 0.75,0.75 0 0 0 11.796875,11.0625 Z"
     id="path2" />
</svg>
