<svg width="34" height="37" viewBox="0 0 34 37" fill="none" xmlns="http://www.w3.org/2000/svg">
<path d="M26.2589 0.0916443C25.9893 0.148422 25.5138 0.304554 25.2086 0.4394C23.5195 1.16329 22.4407 2.24914 21.7169 3.93113C21.213 5.10923 21.1065 6.6067 21.4401 7.91965C21.5394 8.32418 21.6104 8.65774 21.5962 8.66483C21.582 8.67903 19.2329 10.0984 16.3657 11.823L11.1636 14.9528L10.7378 14.5624C9.92162 13.8102 8.97772 13.2779 7.94865 12.994C7.55122 12.8876 7.21766 12.8592 6.31634 12.8592C5.03178 12.8663 4.64144 12.9443 3.68335 13.3914C2.21427 14.0728 1.21359 15.0734 0.532276 16.5425C0.0780671 17.5077 0 17.8838 0 19.211C0 20.5381 0.0780671 20.9143 0.532276 21.8795C1.21359 23.3485 2.21427 24.3492 3.68335 25.0305C4.5208 25.428 4.9892 25.5344 6.04665 25.577C8.11188 25.6622 9.70871 25.0021 11.0997 23.4976L11.5681 22.9795L14.5489 24.5054C16.1883 25.3499 18.4309 26.4925 19.5239 27.0603L21.5181 28.0823L21.3833 28.6642C21.2626 29.1539 21.2484 29.4165 21.2768 30.2114C21.3194 31.2901 21.4259 31.7443 21.8233 32.5959C22.5046 34.065 23.5053 35.0657 24.9744 35.747C25.9396 36.2012 26.3157 36.2793 27.6429 36.2793C28.97 36.2793 29.3461 36.2012 30.3113 35.747C31.7804 35.0657 32.7811 34.065 33.4624 32.5959C33.9166 31.6308 33.9947 31.2546 33.9947 29.9275C33.9947 28.6003 33.9166 28.2242 33.4624 27.259C32.7811 25.7899 31.7804 24.7892 30.3113 24.1079C29.9991 23.9589 29.5449 23.7815 29.3107 23.7176C28.7287 23.5544 27.1957 23.4976 26.557 23.6111C25.1376 23.8666 23.8743 24.5621 22.9091 25.6267L22.4975 26.088L17.5651 23.5615C14.854 22.1775 12.6043 21.0136 12.5759 20.9852C12.5404 20.9569 12.5688 20.6801 12.6327 20.382C12.8172 19.5729 12.7533 18.1748 12.5049 17.4013C12.3985 17.0961 12.3275 16.8335 12.3346 16.8335C12.3417 16.8264 14.6908 15.4141 17.558 13.6895L22.7672 10.5597L23.2143 10.9785C24.0518 11.7591 25.0028 12.2985 26.046 12.5824C26.7415 12.774 28.601 12.774 29.2752 12.5824C29.8713 12.4192 30.7726 11.9933 31.312 11.6314C32.483 10.8365 33.4624 9.43841 33.8669 7.99771C34.0444 7.33769 34.0444 5.39311 33.8669 4.73309C33.4624 3.2924 32.483 1.89429 31.312 1.09942C30.7868 0.744572 29.8784 0.311653 29.3107 0.155518C28.7003 -0.0148087 26.919 -0.0573921 26.2589 0.0916443Z" fill="#84A12F"/>
</svg>
