<svg width="26" height="21" viewBox="0 0 26 21" fill="none" xmlns="http://www.w3.org/2000/svg">
<path d="M3.25763 0.195379C3.14735 0.24762 3.00223 0.381124 2.92097 0.497217L2.78166 0.706182V9.03576V17.3653L2.13154 16.7152C1.4466 16.0361 1.30149 15.9432 0.912582 15.9432C0.279882 15.9432 -0.103221 16.4598 0.0244802 17.1448C0.0593077 17.3363 0.262468 17.5685 1.58011 18.8919C2.41597 19.7336 3.17057 20.4592 3.25763 20.5056C3.46079 20.6101 3.95999 20.6101 4.16315 20.5056C4.3489 20.4011 7.2686 17.4756 7.36148 17.2957C7.45435 17.1099 7.43693 16.6572 7.33245 16.4308C7.15251 16.0535 6.72297 15.8794 6.22378 15.9722C6.04383 16.0071 5.8755 16.1348 5.32407 16.6862L4.63913 17.3595V9.02996V0.706182L4.49981 0.497217C4.24441 0.119919 3.68137 -0.013586 3.25763 0.195379Z" fill="#84A12F"/>
<path d="M10.608 1.19808C10.3433 1.37222 10.2109 1.63342 10.2109 2.01072C10.2109 2.38802 10.3433 2.64922 10.608 2.82336C10.7845 2.93365 10.8948 2.93945 13.2992 2.93945C15.7036 2.93945 15.8139 2.93365 15.9903 2.82336C16.2551 2.64922 16.3874 2.38802 16.3874 2.01072C16.3874 1.63342 16.2551 1.37222 15.9903 1.19808C15.8139 1.08779 15.7036 1.08199 13.2992 1.08199C10.8948 1.08199 10.7845 1.08779 10.608 1.19808Z" fill="#84A12F"/>
<path d="M10.608 6.7723C10.3433 6.94643 10.2109 7.20764 10.2109 7.58494C10.2109 7.96224 10.3433 8.22344 10.608 8.39758C10.7845 8.50787 10.8948 8.51367 15.0639 8.51367C19.233 8.51367 19.3433 8.50787 19.5198 8.39758C19.7845 8.22344 19.9168 7.96224 19.9168 7.58494C19.9168 7.20764 19.7845 6.94643 19.5198 6.7723C19.3433 6.66201 19.233 6.6562 15.0639 6.6562C10.8948 6.6562 10.7845 6.66201 10.608 6.7723Z" fill="#84A12F"/>
<path d="M10.608 12.3426C10.3433 12.5167 10.2109 12.778 10.2109 13.1553C10.2109 13.5325 10.3433 13.7938 10.608 13.9679C10.7845 14.084 10.9003 14.084 16.3874 14.084C21.8745 14.084 21.9903 14.084 22.1668 13.9679C22.4315 13.7938 22.5639 13.5325 22.5639 13.1553C22.5639 12.778 22.4315 12.5167 22.1668 12.3426C21.9903 12.2265 21.8745 12.2265 16.3874 12.2265C10.9003 12.2265 10.7845 12.2265 10.608 12.3426Z" fill="#84A12F"/>
<path d="M10.608 17.9168C10.3433 18.091 10.2109 18.3522 10.2109 18.7295C10.2109 19.1068 10.3433 19.368 10.608 19.5421C10.7845 19.6582 10.9003 19.6582 17.7109 19.6582C24.5216 19.6582 24.6374 19.6582 24.8139 19.5421C25.0786 19.368 25.2109 19.1068 25.2109 18.7295C25.2109 18.3522 25.0786 18.091 24.8139 17.9168C24.6374 17.8007 24.5216 17.8007 17.7109 17.8007C10.9003 17.8007 10.7845 17.8007 10.608 17.9168Z" fill="#84A12F"/>
</svg>
