<svg width="33" height="33" viewBox="0 0 33 33" fill="none" xmlns="http://www.w3.org/2000/svg">
<path d="M14.3781 0.578671C10.894 1.06919 7.8643 2.53354 5.32514 4.95729C3.14665 7.03479 1.60295 9.68215 0.852743 12.6181C0.7229 13.1374 0.564202 13.967 0.49928 14.4503C0.369436 15.4746 0.347796 17.581 0.455999 18.5043C0.665191 20.2067 1.21342 22.1039 1.95641 23.6476L2.38923 24.5493L1.37212 28.6321C0.816676 30.8755 0.37665 32.7366 0.405504 32.7583C0.434358 32.7871 2.30988 32.3615 4.56771 31.8133L8.67943 30.8178L9.53063 31.2146C11.9111 32.3399 13.902 32.7871 16.5566 32.7871C19.1391 32.7871 21.267 32.311 23.5032 31.2434C28.3147 28.9351 31.5535 24.643 32.5202 19.2978C32.7149 18.2446 32.751 15.756 32.5923 14.5296C32.3615 12.7118 31.8349 10.9878 30.9909 9.32869C30.1469 7.65515 29.339 6.55148 27.9828 5.18812C26.6195 3.83198 25.5158 3.02406 23.8423 2.18008C22.212 1.35052 20.4736 0.809505 18.7207 0.585884C17.6314 0.44883 15.3592 0.441616 14.3781 0.578671ZM11.4711 9.2277C11.9977 9.37197 12.3295 9.59559 12.5387 9.94905C12.6397 10.1222 12.9643 10.8003 13.26 11.4567C13.9886 13.0725 13.9814 13.3971 13.2456 14.2483C12.4737 15.1356 12.4593 15.3015 13.0364 16.2176C14.2627 18.1725 15.8425 19.5719 17.5665 20.2356C18.5043 20.5962 18.7712 20.5169 19.2473 19.7378C19.7089 18.966 20.2427 18.6558 20.9424 18.7496C21.13 18.7784 21.772 19.0381 22.4789 19.3844C23.8206 20.0408 24.1813 20.3365 24.3328 20.892C24.5925 21.8442 23.7124 23.3157 22.5511 23.8928C22.0533 24.1381 21.9379 24.1669 21.2959 24.1886C19.0236 24.2824 16.6287 23.3734 14.1256 21.4691C12.6252 20.3293 10.1798 17.6675 9.2493 16.1671C7.92922 14.0175 7.90758 11.7308 9.20602 10.0212C9.50899 9.62445 9.91294 9.2782 10.1943 9.17721C10.4035 9.10507 11.1032 9.12671 11.4711 9.2277Z" fill="#B0CB1F"/>
</svg>
