<svg width="27" height="18" viewBox="0 0 27 18" fill="none" xmlns="http://www.w3.org/2000/svg">
<path d="M26.3863 3.13055C26.2373 2.59915 25.9471 2.11805 25.5466 1.73838C25.1347 1.34705 24.63 1.06711 24.0799 0.925006C22.0212 0.382389 13.7735 0.382389 13.7735 0.382389C10.335 0.343269 6.89749 0.51533 3.48017 0.897601C2.93009 1.05021 2.42625 1.33639 2.01346 1.73071C1.60787 2.12096 1.31409 2.60219 1.16062 3.12946C0.791962 5.11548 0.612842 7.13205 0.625677 9.15196C0.612522 11.1701 0.791202 13.186 1.16062 15.1745C1.3108 15.6995 1.60348 16.1786 2.01017 16.5655C2.41686 16.9525 2.9233 17.232 3.48017 17.38C5.56623 17.9215 13.7735 17.9215 13.7735 17.9215C17.2162 17.9607 20.6582 17.7886 24.0799 17.4063C24.63 17.2642 25.1347 16.9843 25.5466 16.5929C25.9522 16.206 26.2405 15.7247 26.3852 15.2008C26.7635 13.2155 26.9474 11.1981 26.9344 9.17717C26.9628 7.14768 26.7791 5.12077 26.3863 3.12946V3.13055ZM11.1514 12.9053V5.39968L18.0135 9.15305L11.1514 12.9053Z" fill="#B0CB1F"/>
</svg>
