<svg width="50" height="51" viewBox="0 0 50 51" fill="none" xmlns="http://www.w3.org/2000/svg">
<g clip-path="url(#clip0_44_239)">
<mask id="mask0_44_239" style="mask-type:luminance" maskUnits="userSpaceOnUse" x="0" y="0" width="50" height="51">
<path d="M50 0.0957031H0V50.0957H50V0.0957031Z" fill="white"/>
</mask>
<g mask="url(#mask0_44_239)">
<path d="M21.0937 40.7245C22.1724 40.7245 23.0468 39.8501 23.0468 38.7714V34.8652C23.0468 33.7881 23.923 32.912 24.9999 32.912C26.0769 32.912 26.9531 33.7881 26.9531 34.8652V38.7714C26.9531 39.8501 27.8274 40.7245 28.9062 40.7245C29.9849 40.7245 30.8593 39.8501 30.8593 38.7714V34.8652C30.8593 31.6343 28.2309 29.0057 24.9999 29.0057C21.769 29.0057 19.1406 31.6343 19.1406 34.8652V38.7714C19.1406 39.8501 20.0149 40.7245 21.0937 40.7245Z" fill="#B0CB1F"/>
<path d="M47.8057 18.5773C47.8057 18.5773 28.6642 2.95025 28.6591 2.94615C26.5045 1.22368 23.4952 1.22368 21.3409 2.94615C21.3357 2.95025 2.19428 18.5773 2.19428 18.5773C-0.33257 20.6028 -0.733156 24.2841 1.2851 26.8049C3.31206 29.3428 7.00474 29.7377 9.52202 27.7204C9.5273 27.7161 25 15.0485 25 15.0485C25 15.0485 40.473 27.7164 40.4783 27.7207C42.99 29.7326 46.684 29.3484 48.7133 26.8067C50.7398 24.2757 50.3244 20.5962 47.8057 18.5773ZM45.6624 24.3674C44.991 25.2082 43.766 25.3441 42.9266 24.6769L26.2372 11.0131C25.5175 10.4241 24.4824 10.4241 23.7627 11.0131L7.073 24.6772C6.23969 25.3393 5.01314 25.2133 4.33589 24.3652C3.66216 23.5236 3.79673 22.2966 4.64048 21.6227C4.64594 21.6184 23.7868 5.99175 23.7868 5.99175C24.5023 5.42466 25.4977 5.42466 26.2132 5.99175C26.2132 5.99175 45.3542 21.6183 45.3595 21.6227C46.2005 22.2944 46.3406 23.5202 45.6624 24.3674Z" fill="#303030"/>
<path d="M9.76562 32.2409C8.68691 32.2409 7.8125 33.1153 7.8125 34.194V38.7724C7.8125 44.1572 12.1934 48.5381 17.5782 48.5381H32.4218C37.8066 48.5381 42.1875 44.1572 42.1875 38.7724V34.1933C42.1875 33.1147 41.3131 32.2402 40.2343 32.2402C39.1557 32.2402 38.2812 33.1147 38.2812 34.1933V38.7724C38.2812 42.0033 35.6527 44.6318 32.4218 44.6318H17.5782C14.3473 44.6318 11.7188 42.0033 11.7188 38.7724V34.194C11.7188 33.1153 10.8443 32.2409 9.76562 32.2409Z" fill="#303030"/>
</g>
</g>
<defs>
<clipPath id="clip0_44_239">
<rect width="50" height="50" fill="white" transform="translate(0 0.0957031)"/>
</clipPath>
</defs>
</svg>
