<svg width="50" height="51" viewBox="0 0 50 51" fill="none" xmlns="http://www.w3.org/2000/svg">
<path d="M38.8501 47.8237H11.1513C6.25595 47.8237 2.27344 43.8411 2.27344 38.9458V11.247C2.27344 6.35174 6.25595 2.36914 11.1513 2.36914H28.3771C29.3576 2.36914 30.1526 3.16406 30.1526 4.14471C30.1526 5.12536 29.3576 5.92028 28.3771 5.92028H11.1513C8.21413 5.92028 5.82457 8.30983 5.82457 11.247V38.9458C5.82457 41.883 8.21413 44.2725 11.1513 44.2725H38.8501C41.7873 44.2725 44.1768 41.883 44.1768 38.9458V21.72C44.1768 20.7395 44.9717 19.9445 45.9524 19.9445C46.9331 19.9445 47.728 20.7395 47.728 21.72V38.9458C47.728 43.8411 43.7455 47.8237 38.8501 47.8237Z" fill="#303030"/>
<path d="M44.9132 5.1843C42.1439 2.41513 37.6382 2.41513 34.8689 5.1843L15.5411 24.5123C12.2857 27.7675 10.8812 32.4061 11.7841 36.9203C11.9246 37.6233 12.474 38.1727 13.1769 38.3132C17.6695 39.2117 22.3143 37.8271 25.5852 34.5562L44.9132 15.2284C47.6823 12.4593 47.6823 7.95348 44.9132 5.1843ZM42.4021 12.7174L23.074 32.0453C20.954 34.1654 18.0433 35.2266 15.0972 35.0001C14.8704 32.0548 15.9318 29.1435 18.052 27.0233L33.0933 11.9819L34.349 13.2375C35.0423 13.9309 36.1666 13.931 36.86 13.2375C37.5535 12.5441 37.5536 11.4198 36.86 10.7265L35.6045 9.47088L37.38 7.69531C38.7647 6.31072 41.0177 6.31072 42.4021 7.69531C43.7866 9.0799 43.7866 11.3328 42.4021 12.7174Z" fill="#B0CB1F"/>
</svg>
