<svg width="50" height="51" viewBox="0 0 50 51" fill="none" xmlns="http://www.w3.org/2000/svg">
<g clip-path="url(#clip0_44_89)">
<path d="M27.3473 50.0788C23.9751 50.0788 21.3422 49.304 18.5541 48.4842C16.3068 47.8228 13.9844 47.1399 10.9006 46.7066C10.0256 46.5837 9.41635 45.775 9.53918 44.8995C9.6624 44.0245 10.4684 43.4072 11.3462 43.5381C14.6619 44.0035 17.2102 44.7531 19.4574 45.4145C22.1284 46.2004 24.4352 46.879 27.3473 46.879C31.5801 46.879 37.7828 44.4708 45.7819 39.7215C46.5551 39.2622 47.0922 38.3505 46.6241 37.4967C46.1755 36.6751 45.0555 36.3546 44.1743 36.7922C43.6666 37.047 43.136 37.3163 42.5874 37.5963C37.4899 40.1911 31.1441 43.4202 26.9514 42.3345C26.0316 42.0961 24.7472 41.6357 23.2603 41.1035C20.8837 40.2525 17.9266 39.1935 15.1716 38.5694C14.3102 38.3737 13.7701 37.5166 13.9642 36.6552C14.1603 35.7939 15.0182 35.2522 15.8788 35.4479C18.8219 36.1162 21.8813 37.2106 24.3383 38.0903C25.7536 38.5965 26.9746 39.0341 27.7536 39.2362C30.7687 40.0179 36.7628 36.9707 41.1348 34.7441C41.6906 34.4618 42.2269 34.1879 42.7415 33.9311C45.157 32.723 48.1592 33.6313 49.4314 35.9602C50.683 38.2463 49.8163 41.0467 47.4157 42.4723C38.7949 47.5916 32.2309 50.0788 27.3473 50.0788Z" fill="#B0CB1F"/>
<path d="M32.2106 37.0288C31.5735 37.0288 30.9712 36.6466 30.7225 36.0183C30.3967 35.1978 30.7988 34.267 31.6197 33.942C33.8902 33.0413 35.9868 31.9564 38.0146 30.9066C38.6948 30.5549 39.3578 30.2116 40.0029 29.8885C42.1383 28.8188 44.4062 29.0668 45.7833 30.5202C47.0746 31.8828 47.2462 33.9252 46.2208 35.7227C45.7825 36.4898 44.8075 36.7583 44.0381 36.3189C43.2702 35.8813 43.0039 34.9036 43.4414 34.1357C43.7615 33.5754 43.7691 33.0455 43.4597 32.7197C43.0767 32.3142 42.2821 32.3257 41.436 32.7483C40.8036 33.0657 40.1528 33.4026 39.4852 33.7478C37.4852 34.7816 35.2189 35.955 32.7992 36.9144C32.6058 36.9926 32.4067 37.0288 32.2106 37.0288Z" fill="#B0CB1F"/>
<path d="M29.8356 33.0257C29.1985 33.0257 28.5962 32.6434 28.3475 32.0152C28.0217 31.1946 28.4238 30.2638 29.2447 29.9388C31.4431 29.066 32.5715 28.4766 33.9982 27.7313C34.5502 27.4429 35.1411 27.1343 35.846 26.7806C37.8468 25.7789 39.9606 25.9254 41.3655 27.1602C42.6411 28.2832 43.0608 30.0411 42.4626 31.7481C42.1696 32.582 41.2556 33.0169 40.4225 32.7285C39.589 32.4355 39.1503 31.5219 39.4425 30.6884C39.6054 30.2238 39.5352 29.8129 39.251 29.5615C38.8444 29.2045 38.0894 29.2342 37.2792 29.6405C36.5929 29.9838 36.0173 30.2852 35.4802 30.5652C34.0302 31.3236 32.7779 31.9778 30.4242 32.9112C30.2308 32.9894 30.0305 33.0257 29.8356 33.0257Z" fill="#B0CB1F"/>
<path d="M24.7354 41.2936C24.1193 41.2936 23.4716 41.1845 22.8105 40.9434C21.9804 40.6402 21.5528 39.7224 21.8553 38.8923C22.1578 38.0618 23.0748 37.6346 23.9068 37.9371C25.1905 38.4078 26.1438 37.7013 26.407 37.0505C26.8621 35.9283 25.4796 35.1653 24.8643 34.8899C24.4764 34.7167 24.0739 34.5302 23.6528 34.3345C20.1566 32.7128 15.3676 30.4908 6.94363 30.4908C6.05977 30.4908 5.34375 29.7748 5.34375 28.8909C5.34375 28.007 6.05977 27.291 6.94363 27.291C16.0749 27.291 21.2331 29.684 24.9997 31.4303C25.4079 31.6192 25.797 31.8004 26.1731 31.9682C29.535 33.472 30.2022 36.209 29.3737 38.2518C28.6863 39.9478 26.9002 41.2936 24.7354 41.2936Z" fill="#B0CB1F"/>
<path d="M6.94008 47.4418H1.59988C0.716019 47.4418 0 46.7258 0 45.8419C0 44.9581 0.716019 44.242 1.59988 44.242H5.34019V28.482H3.19901V41.3753C3.19901 42.2592 2.48299 42.9748 1.59912 42.9748C0.714874 42.9748 0 42.2584 0 41.3753V26.8821C0 25.9979 0.716019 25.2822 1.59988 25.2822H6.94008C7.82433 25.2822 8.53996 25.9979 8.53996 26.8821V45.8419C8.53996 46.7258 7.82318 47.4418 6.94008 47.4418Z" fill="#B0CB1F"/>
<path d="M24.4259 29.5812C23.5417 29.5812 22.8261 28.8652 22.8261 27.9813C22.8261 24.6393 22.6162 23.1721 22.0234 22.373C20.8066 20.7315 19.1971 19.9621 17.495 19.1457C15.3916 18.1379 13.0093 16.9965 11.4102 14.1363C9.38153 10.5077 9.67946 5.37275 9.82251 2.90464C9.84693 2.4896 9.87706 1.97195 9.86753 1.83004C9.82366 1.16171 10.1998 0.512448 10.8105 0.24046C11.4243 -0.0307654 12.1377 0.0810052 12.6046 0.560131C13.8638 1.84988 15.8104 2.19473 17.8723 2.56056C19.2875 2.81195 20.7512 3.07097 22.131 3.64889C25.9129 5.23581 28.1567 8.17732 28.695 12.132C31.4259 10.1064 34.7226 9.90728 37.3417 9.74859C38.3141 9.69061 39.2327 9.63415 39.9945 9.4972C40.5159 9.39917 41.0466 9.57159 41.4166 9.94696C41.7874 10.3223 41.9495 10.8552 41.8507 11.3737C41.8404 11.4282 41.8316 11.5072 41.8187 11.6067C41.2232 16.2492 38.7993 19.4196 34.6116 21.0264C31.2836 22.3028 30.1621 22.7327 30.1621 26.9414C30.1621 27.8253 29.4465 28.5409 28.5622 28.5409C27.6783 28.5409 26.9623 27.8253 26.9623 26.9414C26.9623 20.8425 29.4335 19.5852 33.4649 18.0391C36.6768 16.8058 37.8487 14.5818 38.3217 12.8946C38.0627 12.9117 37.801 12.9274 37.5348 12.9438C34.0699 13.1536 30.4863 13.3703 28.4367 17.3536C28.0777 18.052 27.2633 18.3847 26.5172 18.1421C25.771 17.8987 25.3106 17.1487 25.4338 16.3732C26.2032 11.4759 24.6754 8.18762 20.8951 6.60185C19.843 6.16163 18.6139 5.94305 17.3138 5.71341C15.8978 5.46202 14.3693 5.19079 12.9445 4.57472C12.8594 6.93029 12.933 10.3059 14.2037 12.5783C15.3069 14.5517 16.9621 15.3444 18.8775 16.2622C20.765 17.1663 22.9039 18.1917 24.593 20.469C25.8038 22.101 26.0247 24.2788 26.0247 27.9828C26.0247 28.8652 25.309 29.5812 24.4259 29.5812Z" fill="#B0CB1F"/>
</g>
<defs>
<clipPath id="clip0_44_89">
<rect width="50.0004" height="50" fill="white" transform="translate(0 0.0957031)"/>
</clipPath>
</defs>
</svg>
