<svg width="50" height="51" viewBox="0 0 50 51" fill="none" xmlns="http://www.w3.org/2000/svg">
<g clip-path="url(#clip0_44_69)">
<path d="M25.1868 49.9981H8.56082C7.67657 49.9981 6.96094 49.2814 6.96094 48.3975V8.90164C6.96094 8.0174 7.67657 7.30176 8.56082 7.30176H11.3246C12.2084 7.30176 12.9245 8.01816 12.9245 8.90164C12.9245 9.78474 12.2084 10.5011 11.3246 10.5011H10.1599V46.7984H25.186C26.0703 46.7984 26.7859 47.5144 26.7859 48.3983C26.7859 49.2821 26.0703 49.9981 25.1868 49.9981Z" fill="#B0CB1F"/>
<path d="M41.2469 49.9981H29.5399C28.6561 49.9981 27.9401 49.2814 27.9401 48.3975V38.0105H21.8716V48.3975C21.8716 49.2814 21.1556 49.9981 20.2718 49.9981C19.3879 49.9981 18.6719 49.2814 18.6719 48.3975V36.4106C18.6719 35.5263 19.3879 34.8107 20.2718 34.8107H29.5392C30.423 34.8107 31.1391 35.5263 31.1391 36.4106V46.7984H39.6462V10.5011H38.4839C37.6 10.5011 36.884 9.78474 36.884 8.90164C36.884 8.01816 37.6 7.30176 38.4839 7.30176H41.2461C42.13 7.30176 42.846 8.01816 42.846 8.90164V48.3983C42.8468 49.2814 42.1311 49.9981 41.2469 49.9981Z" fill="#B0CB1F"/>
<path d="M34.7822 38.5746C34.2199 38.5746 33.6557 38.3492 33.2571 37.9425C32.8497 37.5431 32.625 36.9808 32.625 36.4079C32.625 35.8368 32.8504 35.281 33.2571 34.8824C34.0631 34.0756 35.5112 34.0679 36.3165 34.8824C36.7235 35.281 36.9577 35.8445 36.9577 36.4079C36.9577 36.9797 36.7227 37.5431 36.3165 37.9425C35.9098 38.3492 35.3544 38.5746 34.7822 38.5746Z" fill="#B0CB1F"/>
<path d="M15.0105 38.5749C14.4383 38.5749 13.8836 38.3494 13.4755 37.9428C13.0768 37.5434 12.8438 36.9811 12.8438 36.4081C12.8438 35.8371 13.0776 35.2813 13.4755 34.8731C14.2823 34.067 15.7376 34.067 16.5436 34.8731C16.9518 35.2813 17.1761 35.8447 17.1761 36.4081C17.1761 36.9799 16.951 37.5434 16.5436 37.9428C16.1362 38.3494 15.5823 38.5749 15.0105 38.5749Z" fill="#B0CB1F"/>
<path d="M34.7822 26.727C34.2112 26.727 33.6557 26.4924 33.2571 26.0869C32.8497 25.6879 32.625 25.1325 32.625 24.5607C32.625 23.9885 32.8504 23.425 33.2571 23.0264C34.0544 22.2204 35.5112 22.2204 36.3165 23.0264C36.7235 23.4338 36.9577 23.9885 36.9577 24.5607C36.9577 25.1237 36.7227 25.6872 36.3165 26.0869C35.9186 26.4924 35.3544 26.727 34.7822 26.727Z" fill="#B0CB1F"/>
<path d="M15.0105 26.727C14.4383 26.727 13.8836 26.4924 13.4755 26.0953C13.0768 25.6879 12.8438 25.1333 12.8438 24.5607C12.8438 23.9885 13.0776 23.425 13.4755 23.0264C14.2823 22.2204 15.7376 22.2204 16.5436 23.0264C16.9518 23.4338 17.1761 23.9885 17.1761 24.5607C17.1761 25.1237 16.951 25.6872 16.5436 26.0869C16.1362 26.4924 15.5823 26.727 15.0105 26.727Z" fill="#B0CB1F"/>
<path d="M34.7822 32.6564C34.2199 32.6564 33.6557 32.4214 33.2571 32.0152C32.8497 31.6154 32.625 31.0607 32.625 30.4897C32.625 29.9175 32.8504 29.3533 33.2571 28.9547C34.0631 28.1478 35.5017 28.1402 36.3165 28.9547C36.7235 29.3533 36.9577 29.9167 36.9577 30.4897C36.9577 31.052 36.7227 31.6154 36.3165 32.0152C35.9186 32.4214 35.3544 32.6564 34.7822 32.6564Z" fill="#B0CB1F"/>
<path d="M26.0314 30.489C26.0314 29.2836 27.0018 28.3223 28.1981 28.3223C29.394 28.3223 30.3645 29.2836 30.3645 30.489C30.3645 31.6842 29.394 32.6558 28.1981 32.6558C27.003 32.6558 26.0314 31.6842 26.0314 30.489ZM19.4453 30.489C19.4453 29.2836 20.4066 28.3223 21.6121 28.3223C22.808 28.3223 23.7788 29.2836 23.7788 30.489C23.7788 31.6842 22.808 32.6558 21.6121 32.6558C20.4066 32.6558 19.4453 31.6842 19.4453 30.489Z" fill="#B0CB1F"/>
<path d="M15.0105 32.647C14.4383 32.647 13.8836 32.4215 13.4755 32.0152C13.0768 31.6155 12.8438 31.0608 12.8438 30.4897C12.8438 29.9175 13.0776 29.3534 13.4755 28.9547C14.2903 28.1479 15.7376 28.1479 16.5436 28.9547C16.9518 29.3534 17.1761 29.9168 17.1761 30.4897C17.1761 31.052 16.951 31.6155 16.5436 32.0152C16.1362 32.4215 15.5823 32.647 15.0105 32.647Z" fill="#B0CB1F"/>
<path d="M48.2996 49.9976H45.4004C44.5166 49.9976 43.8006 49.2808 43.8006 48.3969C43.8006 47.5127 44.5166 46.7978 45.4004 46.7978H46.6997V17.2652H41.2405C40.3566 17.2652 39.6406 16.5484 39.6406 15.6653C39.6406 14.7822 40.3566 14.0654 41.2405 14.0654H48.2996C49.1835 14.0654 49.8995 14.7822 49.8995 15.6653V48.3977C49.8987 49.2808 49.1827 49.9976 48.2996 49.9976Z" fill="#B0CB1F"/>
<path d="M4.40416 49.9983H1.50613C0.622269 49.9983 -0.09375 49.2815 -0.09375 48.3984V30.0901C-0.09375 29.2059 0.622269 28.4902 1.50613 28.4902H8.56599C9.44986 28.4902 10.1659 29.2059 10.1659 30.0901C10.1659 30.974 9.44986 31.6908 8.56599 31.6908H3.10602V46.7985H4.40416C5.28841 46.7985 6.00404 47.5145 6.00404 48.3984C6.00404 49.2822 5.28841 49.9983 4.40416 49.9983Z" fill="#B0CB1F"/>
<path d="M26.5118 5.59764C25.8114 5.59764 25.1683 5.13377 24.9718 4.42691C24.9481 4.33994 24.923 4.25868 24.9005 4.18239C24.8772 4.25868 24.852 4.34108 24.8287 4.42691C24.5918 5.27682 23.7107 5.77617 22.8577 5.53775C22.0066 5.30048 21.5092 4.41814 21.7468 3.56708C22.4072 1.1993 23.468 -0.00195312 24.9005 -0.00195312C26.3333 -0.00195312 27.393 1.1993 28.0544 3.56784C28.291 4.4189 27.7943 5.30124 26.9432 5.53851C26.7987 5.57857 26.6537 5.59764 26.5118 5.59764Z" fill="#B0CB1F"/>
<path d="M24.9027 24.9021C24.9012 24.9021 24.9001 24.9021 24.8985 24.9021C23.4695 24.9021 22.4075 23.7008 21.7464 21.3323C21.5099 20.4812 22.0062 19.5989 22.8577 19.3612C23.7095 19.1232 24.5907 19.6214 24.8283 20.4724C24.8516 20.559 24.8768 20.6407 24.9001 20.7177C24.9237 20.6414 24.9477 20.5598 24.9714 20.4732C25.2087 19.6221 26.0902 19.1247 26.9421 19.3624C27.7931 19.5996 28.2906 20.482 28.0533 21.333C27.3937 23.7016 26.3329 24.9021 24.9027 24.9021Z" fill="#B0CB1F"/>
<path d="M17.0711 20.0687C15.2969 20.0687 14.4886 19.3122 14.1228 18.6779C13.3056 17.2641 13.9564 15.4644 16.058 13.3277C17.6483 11.7115 19.9737 9.98607 22.6059 8.46667C26.4877 6.22554 30.3703 4.83203 32.7404 4.83203C34.5138 4.83203 35.3226 5.58849 35.6891 6.22287C37.8773 10.017 29.0069 15.3957 27.206 16.4356C23.3234 18.6771 19.4397 20.0687 17.0711 20.0687ZM32.563 8.03676C31.0089 8.10962 27.8934 9.10793 24.2058 11.2384C20.2389 13.5273 17.9794 15.7398 17.2481 16.8647C18.8011 16.7919 21.9177 15.7936 25.6069 13.6642C29.5711 11.3742 31.8298 9.16171 32.563 8.03676Z" fill="#B0CB1F"/>
<path d="M32.708 20.0732C29.9054 20.0732 26.1052 18.3051 24.1585 17.2927C23.375 16.8845 23.0698 15.919 23.478 15.1347C23.8861 14.3504 24.8516 14.0452 25.6359 14.4534C29.0741 16.2425 31.4377 16.8136 32.547 16.8735C32.3555 16.5759 32.0443 16.1704 31.5537 15.6634C30.5928 14.6667 29.2492 13.5818 27.6692 12.5243C26.9345 12.033 26.7376 11.0396 27.229 10.3049C27.7188 9.56985 28.7117 9.37224 29.4487 9.86472C31.2157 11.0469 32.7401 12.2836 33.8566 13.4406C35.8689 15.5238 36.4842 17.2858 35.6842 18.6759C35.0975 19.6918 34.01 20.0732 32.708 20.0732Z" fill="#B0CB1F"/>
<path d="M21.244 15.3066C20.938 15.3066 20.6286 15.2192 20.3559 15.0361C18.5893 13.8532 17.065 12.6165 15.9488 11.4606C13.9361 9.37701 13.3208 7.615 14.1208 6.22493C15.9694 3.02325 22.7962 6.12536 25.645 7.60814C26.4293 8.01554 26.7344 8.98181 26.3263 9.76611C25.9189 10.5496 24.9534 10.8571 24.1691 10.4474C20.7301 8.65832 18.3669 8.08802 17.2576 8.02851C17.4491 8.32568 17.76 8.73118 18.2506 9.23816C19.2119 10.233 20.555 11.3191 22.1358 12.3773C22.8702 12.8686 23.0666 13.8627 22.5753 14.597C22.2667 15.0571 21.7605 15.3066 21.244 15.3066Z" fill="#B0CB1F"/>
</g>
<defs>
<clipPath id="clip0_44_69">
<rect width="50" height="50" fill="white" transform="translate(0 0.0957031)"/>
</clipPath>
</defs>
</svg>
