<svg width="50" height="51" viewBox="0 0 50 51" fill="none" xmlns="http://www.w3.org/2000/svg">
<g clip-path="url(#clip0_44_42)">
<path d="M25.7265 32.9434C25.4572 32.9434 25.1841 32.8751 24.9334 32.7321C19.9026 29.852 16.4209 26.0941 14.8645 21.8663C14.5594 21.037 14.9839 20.1173 15.8133 19.8125C16.641 19.5081 17.5623 19.9319 17.8675 20.7612C19.5013 25.1996 23.4766 28.2105 26.5238 29.9542C27.2909 30.3937 27.556 31.3714 27.1177 32.1385C26.8213 32.6539 26.2812 32.9434 25.7265 32.9434Z" fill="#B0CB1F"/>
<path d="M27.976 29.3009C27.36 29.3009 26.7733 28.9438 26.5104 28.3442C26.1553 27.5347 26.5226 26.5909 27.3314 26.2346C29.5691 25.2508 31.41 23.2351 32.3824 20.7033C32.6986 19.8793 33.6252 19.4674 34.4492 19.7828C35.2743 20.1002 35.6871 21.0257 35.3697 21.8508C34.0933 25.1738 31.6324 27.8399 28.6192 29.1639C28.4094 29.2566 28.1912 29.3009 27.976 29.3009Z" fill="#B0CB1F"/>
<path d="M37.0095 18.2781C36.1252 18.2781 35.4096 17.5624 35.4096 16.6782C35.4096 11.6436 34.0722 3.19705 25.1122 3.19705C18.3175 3.19705 14.8716 7.73235 14.8716 16.6782C14.8716 17.5624 14.1549 18.2781 13.2718 18.2781C12.3887 18.2781 11.6719 17.5624 11.6719 16.6782C11.6707 5.92189 16.4444 -0.00195312 25.1122 -0.00195312C33.5644 -0.00195312 38.6101 6.23317 38.6101 16.6782C38.6094 17.5624 37.8926 18.2781 37.0095 18.2781Z" fill="#B0CB1F"/>
<path d="M44.146 49.9984H5.84988C4.96678 49.9984 4.25 49.2824 4.25 48.3993C4.25 43.9887 4.40869 39.0651 5.58629 35.992C7.37424 31.3212 15.054 28.3771 15.9241 28.0566C16.7096 27.7686 17.5831 28.1318 17.9306 28.8894C19.487 32.2738 22.1383 34.294 25.0226 34.294C27.8958 34.294 30.4516 32.3249 32.0317 28.8894C32.38 28.131 33.2554 27.7686 34.0378 28.0566C34.9072 28.3771 42.5862 31.322 44.3757 35.992C45.4773 38.8625 45.4411 40.5585 45.3942 42.7043C45.3846 43.1464 45.3751 43.6152 45.3751 44.1276C45.3751 45.0114 44.6583 45.7274 43.7745 45.7274C42.8902 45.7274 42.1746 45.0114 42.1746 44.1276C42.1746 43.5901 42.1849 43.0987 42.1944 42.636C42.2387 40.6314 42.2638 39.4214 41.3865 37.1367C40.5018 34.8235 36.6128 32.6697 34.2278 31.5959C32.063 35.316 28.706 37.4938 25.0218 37.4938C21.2899 37.4938 17.9028 35.3148 15.7326 31.5925C13.3069 32.6751 9.46736 34.8044 8.57472 37.136C7.64928 39.553 7.48524 43.9349 7.45587 46.7994H44.146C45.0303 46.7994 45.747 47.5154 45.747 48.3993C45.747 49.2835 45.0303 49.9984 44.146 49.9984Z" fill="#B0CB1F"/>
<path d="M38.561 18.2779H11.6468C10.7629 18.2779 10.0469 17.5623 10.0469 16.678C10.0469 15.7941 10.7629 15.0781 11.6468 15.0781H38.561C39.4448 15.0781 40.1609 15.7941 40.1609 16.678C40.1609 17.5623 39.4441 18.2779 38.561 18.2779Z" fill="#B0CB1F"/>
<path d="M25.1155 12.4671C24.2316 12.4671 23.5156 11.7511 23.5156 10.8673V1.59793C23.5156 0.714066 24.2324 -0.00195312 25.1155 -0.00195312C25.9998 -0.00195312 26.7154 0.714066 26.7154 1.59793V10.8673C26.7154 11.7511 25.9998 12.4671 25.1155 12.4671Z" fill="#B0CB1F"/>
<path d="M21.6934 18.2783C20.8095 18.2783 20.0935 17.5626 20.0935 16.6784V10.8675C20.0935 9.98322 20.8103 9.26758 21.6934 9.26758H28.537C29.4208 9.26758 30.1368 9.98322 30.1368 10.8675V13.0022C30.1368 13.886 29.4208 14.6021 28.537 14.6021C27.6527 14.6021 26.9371 13.886 26.9371 13.0022V12.4673H23.2933V16.6784C23.2944 17.5626 22.5776 18.2783 21.6934 18.2783Z" fill="#B0CB1F"/>
<path d="M37.7051 42.4937H31.8194C30.9355 42.4937 30.2188 41.7781 30.2188 40.8938C30.2188 40.01 30.9355 39.2939 31.8194 39.2939H37.7051C38.589 39.2939 39.3057 40.01 39.3057 40.8938C39.3057 41.7781 38.5882 42.4937 37.7051 42.4937Z" fill="#B0CB1F"/>
</g>
<defs>
<clipPath id="clip0_44_42">
<rect width="49.9023" height="50" fill="white" transform="translate(0 0.0957031)"/>
</clipPath>
</defs>
</svg>
