<svg width="140" height="48" viewBox="0 0 140 48" fill="none" xmlns="http://www.w3.org/2000/svg">
<g opacity="0.5" clip-path="url(#clip0_44_368)">
<path d="M42.2544 9.37269C42.4667 9.51305 42.6755 9.6642 42.8842 9.80816L43.7444 9.17114C44.3094 8.77526 44.878 8.38297 45.4503 8.00148C44.9096 7.69962 44.3944 7.35417 43.9099 6.96857L43.8055 6.875C43.0532 7.59986 42.2458 8.26526 41.3906 8.86523C41.6857 9.03078 41.9701 9.19994 42.2544 9.37269Z" fill="url(#paint0_linear_44_368)"/>
<path d="M50.9876 1.28617C50.1599 0.454806 49.4221 0.0697164 48.7455 0.0949092C47.4426 0.145295 46.3414 1.5345 45.5532 2.43424C44.164 3.99979 42.9511 5.61933 41.0149 6.54067C40.1233 6.95001 39.2046 7.29753 38.2653 7.58077C38.9389 7.74262 39.5939 7.97421 40.2195 8.27177C41.3067 7.66031 42.4446 7.14374 43.6205 6.72781C43.2163 6.3948 42.8537 6.01415 42.5408 5.59414C43.7792 5.83646 44.9695 6.28023 46.0642 6.90776L46.6329 7.23887C46.838 7.10931 47.0396 6.97254 47.2483 6.84298C48.44 6.09213 49.6754 5.41312 50.948 4.80956C49.9553 5.81849 48.9037 6.76787 47.7989 7.65275L47.5578 7.8399L47.6298 7.88668C48.1579 8.24693 48.6464 8.66191 49.0874 9.12473C48.4379 9.10415 47.7956 8.98273 47.1835 8.76483C47.0036 8.70725 46.8236 8.63167 46.6509 8.55969C45.9311 9.12113 45.1993 9.66937 44.4555 10.2044C44.2719 10.3376 44.0956 10.4635 43.8941 10.5931C43.9372 10.6291 43.9876 10.6615 44.0308 10.7011C44.6169 11.1853 45.1383 11.7429 45.582 12.3602C44.6704 12.0759 43.7901 11.6997 42.9547 11.2373C42.0154 11.8707 41.0545 12.4718 40.0755 13.0368C40.6073 13.6002 41.0635 14.2306 41.4324 14.9119C40.7362 14.5915 40.0681 14.2135 39.4349 13.7818C39.3306 13.7134 39.2334 13.6378 39.1326 13.5695C38.5136 13.9294 37.8874 14.2353 37.2432 14.5448C37.693 14.0841 38.1573 13.645 38.6288 13.2168C38.2905 12.9684 37.9593 12.7165 37.6282 12.4538C37.2971 12.1911 36.9912 11.9103 36.6781 11.6296C35.9073 12.0067 35.1084 12.3232 34.2884 12.5761C34.8284 12.0143 35.4094 11.4934 36.0267 11.0178C35.4544 10.4604 34.934 9.85207 34.4719 9.20031C35.2046 9.44426 35.9064 9.77278 36.5629 10.1792C36.6673 10.2404 36.7609 10.3124 36.8653 10.3772C37.5203 9.89491 38.1933 9.44504 38.8771 9.01316L39.3521 8.73964C38.9407 8.37914 38.5558 7.98944 38.2005 7.57357C36.8293 8.01265 35.4365 8.39774 34.1084 8.91599C32.5817 9.54671 31.1326 10.351 29.7897 11.3129C25.8284 14.0937 23.6042 18.7364 23.1172 25.2409C23.5164 24.0119 24.1106 22.8551 24.8771 21.8147C25.6129 20.8152 26.502 19.9382 27.5115 19.2162C28.7113 18.3752 30.0521 17.756 31.4704 17.388C34.4935 16.5674 37.6786 16.3911 40.6334 15.3617C43.4082 14.3936 45.9023 12.7777 48.1696 10.9314C50.437 9.08514 51.8514 6.65943 51.9665 4.35609C52.0205 3.08565 51.6714 1.95918 50.9876 1.28617Z" fill="url(#paint1_linear_44_368)"/>
<path d="M37.8516 11.0681C38.0459 11.2121 38.2439 11.356 38.431 11.5036C38.7909 11.8167 39.1508 12.1406 39.5107 12.4789C40.2713 11.8287 41.0462 11.2001 41.8356 10.593L41.5693 10.4311C41.159 10.1612 40.7559 9.87324 40.36 9.57812C40.0901 9.75807 39.8238 9.93802 39.5503 10.1072C38.9912 10.4431 38.425 10.7634 37.8516 11.0681Z" fill="url(#paint2_linear_44_368)"/>
<path d="M11.8082 30.212H3.8329L5.82674 29.2979V25.3606H20.0031V20.1133H0V47.2963H11.8082C17.1635 47.2963 22.2165 45.4968 22.2165 38.7488C22.2165 32.0007 17.1635 30.212 11.8082 30.212ZM11.8442 42.1678H3.8329L5.03856 41.6243C6.62931 39.8248 6.62931 37.6655 5.03856 35.866L3.8401 35.3225H11.8442C14.1332 35.3225 16.2745 35.8228 16.2745 38.7344C16.2745 41.6459 14.1332 42.1678 11.8442 42.1678Z" fill="white"/>
<path d="M39.1416 19.5684C29.5143 19.5684 24.6953 26.3308 24.6953 33.7015C24.6953 41.0722 29.5143 47.8347 39.1416 47.8347C48.7688 47.8347 53.5879 41.0722 53.5879 33.7015C53.5879 26.3308 48.7724 19.5684 39.1416 19.5684ZM40.0233 42.4038L39.1488 44.3293L38.2778 42.4038C33.1745 42.0115 30.6336 38.2434 30.6336 33.7015C30.6336 29.1596 33.1745 25.3951 38.2562 24.9992L39.1272 23.0774L40.0017 24.9992C45.0403 25.3951 47.5812 29.1848 47.5812 33.7015C47.5812 38.2182 45.0619 42.0115 40.0233 42.4038Z" fill="white"/>
<path d="M69.6845 30.212H61.5616L63.6994 29.2475V25.3606H77.8793V20.1133H57.8906V47.2963H69.6845C75.0469 47.2963 80.0927 45.4968 80.0927 38.7488C80.0927 32.0007 75.0469 30.212 69.6845 30.212ZM69.7276 42.1678H61.5616L63.0192 41.5056C64.4587 39.7745 64.4587 37.723 63.0192 35.9919L61.5616 35.3369H69.7276C72.0238 35.3369 74.158 35.8372 74.158 38.7488C74.158 41.6603 72.0238 42.1678 69.7276 42.1678Z" fill="white"/>
<path d="M94.3394 20.1133H84.0859V47.2963H89.9199V39.3246L87.7605 38.3457H94.3286C100.9 38.3457 106.058 36.2475 106.058 29.2259C106.058 22.2043 100.911 20.1133 94.3394 20.1133ZM94.6093 33.2423H87.7713L89.1677 32.5981C90.7584 30.4387 90.7584 28.0274 89.1677 25.886L87.7713 25.2418H94.6093C97.6109 25.2418 100.13 26.0192 100.13 29.2367C100.13 32.4542 97.6109 33.2423 94.6093 33.2423Z" fill="white"/>
<path d="M120.238 29.0531L113.67 29.0315L115.829 28.049V20.1133H109.984V47.2963H120.238C126.799 47.2963 131.963 45.1981 131.963 38.1693C131.963 31.1405 126.799 29.0819 120.238 29.0531ZM120.504 42.1678H113.666L115.063 41.52C116.653 39.3822 116.653 36.9601 115.063 34.8115L113.666 34.1637H120.504C123.499 34.1637 126.025 34.9878 126.025 38.1693C126.025 41.3508 123.499 42.1678 120.504 42.1678Z" fill="white"/>
<path d="M140.003 20.1133H134.18V47.2927H140.003V20.1133Z" fill="white"/>
</g>
<defs>
<linearGradient id="paint0_linear_44_368" x1="41.3906" y1="6.875" x2="45.4503" y2="6.875" gradientUnits="userSpaceOnUse">
<stop stop-color="#FF9C45"/>
<stop offset="1" stop-color="#FF5D18"/>
</linearGradient>
<linearGradient id="paint1_linear_44_368" x1="23.1172" y1="0.09375" x2="51.972" y2="0.09375" gradientUnits="userSpaceOnUse">
<stop stop-color="#FF9C45"/>
<stop offset="1" stop-color="#FF5D18"/>
</linearGradient>
<linearGradient id="paint2_linear_44_368" x1="37.8516" y1="9.57812" x2="41.8356" y2="9.57812" gradientUnits="userSpaceOnUse">
<stop stop-color="#FF9C45"/>
<stop offset="1" stop-color="#FF5D18"/>
</linearGradient>
<clipPath id="clip0_44_368">
<rect width="140" height="47.7404" fill="white" transform="translate(0 0.0957031)"/>
</clipPath>
</defs>
</svg>
